<svg xmlns="http://www.w3.org/2000/svg" viewBox="0 0 2000 2000">
<title>Cowbell Silhouette</title>
<path d="M 954.0 4.0 L 899.0 50.0 L 896.0 136.0 L 927.0 180.0 L 1031.0 248.0 L 1023.0 273.0 L 991.0 266.0 L 872.0 641.0 L 649.0 654.0 L 585.0 694.0 L 448.0 1533.0 L 477.0 1621.0 L 478.0 1717.0 L 387.0 1917.0 L 376.0 1991.0 L 1415.0 1992.0 L 407.0 1981.0 L 421.0 1895.0 L 494.0 1744.0 L 475.0 1535.0 L 605.0 712.0 L 716.0 660.0 L 1148.0 647.0 L 1384.0 690.0 L 1409.0 677.0 L 1431.0 696.0 L 1534.0 1533.0 L 1507.0 1726.0 L 1591.0 1935.0 L 1589.0 1989.0 L 1508.0 1991.0 L 1612.0 1999.0 L 1450.0 701.0 L 1387.0 658.0 L 1184.0 644.0 L 1255.0 398.0 L 1251.0 338.0 L 1204.0 310.0 L 1232.0 283.0 L 1339.0 291.0 L 1389.0 273.0 L 1420.0 230.0 L 1421.0 157.0 L 1383.0 107.0 L 1262.0 81.0 L 1188.0 29.0 L 1098.0 37.0 Z" fill="#8B5A2B"/>
</svg>
