<svg xmlns="http://www.w3.org/2000/svg" viewBox="0 0 2000 2000" width="2000" height="2000">
  <title>Drum kit line art (vectorized strokes)</title>
  <g fill="none" stroke="#fff" stroke-width="6" stroke-linecap="round" stroke-linejoin="round">
    <path d="M673 1691 L676 1690 L694 1698 L688 1726 L686 1723 L690 1703 L687 1703 L679 1723 L679 1728 L685 1729 L680 1732 L671 1731 L663 1724 L662 1717 L673 1692"/><path d="M673 1688 L662 1713 L661 1724 L667 1731 L674 1733 L685 1732 L689 1728 L695 1705 L694 1696 L674 1688"/><path d="M256 1641 L270 1645 L261 1699 L278 1644 L282 1644 L280 1688 L255 1706 L238 1698 L255 1642"/><path d="M255 1639 L237 1700 L250 1707 L273 1698 L283 1682 L283 1642 L276 1643 L267 1676 L271 1643 L256 1639"/><path d="M1098 1629 L1157 1636 L1203 1636 L1147 1638 L1098 1630"/><path d="M1012 1612 L1013 1617 L1039 1633 L1042 1633 L1045 1630 L1044 1626 L1013 1612"/><path d="M1674 1610 L1676 1609 L1679 1611 L1691 1627 L1691 1634 L1684 1640 L1676 1640 L1672 1637 L1670 1633 L1670 1627 L1673 1631 L1676 1631 L1670 1612 L1673 1610"/><path d="M1299 1609 L1201 1634 L1144 1634 L1099 1626 L1098 1632 L1146 1639 L1225 1635 L1288 1618 L1300 1609"/><path d="M1674 1608 L1669 1610 L1673 1623 L1672 1626 L1665 1613 L1662 1613 L1670 1637 L1674 1641 L1685 1641 L1689 1639 L1693 1631 L1687 1617 L1681 1610 L1675 1608"/><path d="M1077 1552 L1078 1551 L1113 1582 L1110 1584 L1097 1574 L1084 1562 L1077 1553"/><path d="M864 1550 L872 1559 L882 1600 L866 1603 L850 1598 L844 1591 L842 1558 L847 1558 L853 1593 L857 1593 L856 1557 L864 1551"/><path d="M1075 1547 L1074 1551 L1083 1564 L1108 1585 L1113 1585 L1113 1579 L1076 1547"/><path d="M864 1546 L855 1555 L855 1585 L847 1555 L841 1557 L844 1595 L852 1601 L865 1604 L883 1602 L875 1564 L865 1546"/><path d="M868 1520 L864 1531 L864 1535 L870 1538 L877 1546 L883 1545 L888 1540 L893 1532 L893 1529 L884 1528 L878 1533 L877 1531 L880 1527 L879 1524 L869 1520"/><path d="M353 1488 L356 1488 L350 1513 L353 1512 L361 1490 L362 1515 L355 1523 L339 1521 L353 1489"/><path d="M505 1487 L509 1486 L511 1488 L513 1500 L517 1503 L508 1506 L491 1505 L485 1507 L479 1505 L485 1504 L488 1497 L486 1494 L478 1491 L481 1488 L488 1489 L492 1501 L494 1500 L496 1490 L504 1487"/><path d="M520 1486 L525 1485 L534 1487 L540 1492 L540 1495 L536 1499 L535 1492 L533 1490 L528 1490 L525 1494 L527 1500 L518 1503 L517 1501 L519 1495 L519 1487"/><path d="M353 1485 L337 1520 L338 1523 L345 1524 L359 1523 L363 1516 L364 1489 L360 1488 L356 1497 L357 1486 L354 1485"/><path d="M509 1484 L495 1488 L492 1498 L490 1488 L480 1486 L474 1492 L473 1500 L481 1508 L509 1507 L538 1500 L541 1490 L526 1484 L519 1484 L515 1500 L510 1484"/><path d="M876 1458 L883 1459 L908 1500 L956 1553 L1025 1603 L950 1554 L907 1508 L875 1459"/><path d="M880 1455 L873 1460 L921 1528 L966 1570 L1024 1606 L1025 1598 L976 1567 L931 1525 L881 1455"/><path d="M1550 1446 L1553 1446 L1563 1462 L1567 1476 L1565 1478 L1545 1477 L1538 1474 L1535 1451 L1549 1447"/><path d="M1753 1444 L1766 1447 L1772 1481 L1775 1480 L1773 1444 L1777 1448 L1781 1464 L1781 1479 L1777 1483 L1756 1478 L1752 1474 L1753 1445"/><path d="M1550 1442 L1545 1448 L1534 1449 L1538 1477 L1560 1479 L1568 1478 L1568 1472 L1560 1453 L1551 1442"/><path d="M1773 1439 L1773 1479 L1767 1446 L1752 1441 L1751 1476 L1768 1484 L1782 1481 L1782 1463 L1774 1439"/><path d="M770 1437 L851 1531 L844 1539 L767 1448 L770 1438"/><path d="M1488 1435 L1441 1505 L1360 1579 L1394 1557 L1435 1518 L1477 1463 L1489 1435"/><path d="M847 1435 L877 1495 L936 1561 L939 1558 L888 1502 L848 1435"/><path d="M769 1434 L766 1450 L847 1547 L855 1546 L857 1535 L770 1434"/><path d="M701 1426 L702 1425 L708 1433 L702 1448 L697 1453 L692 1453 L681 1445 L690 1433 L691 1435 L686 1445 L689 1447 L701 1427"/><path d="M696 1417 L691 1428 L680 1443 L682 1449 L694 1455 L699 1454 L703 1450 L709 1434 L708 1428 L704 1423 L701 1423 L695 1434 L692 1435 L699 1421 L699 1417 L697 1417"/><path d="M234 1415 L235 1414 L236 1417 L232 1427 L229 1449 L229 1471 L227 1471 L228 1436 L234 1416"/><path d="M394 1399 L398 1400 L361 1475 L362 1468 L394 1400"/><path d="M394 1395 L363 1462 L360 1479 L363 1478 L399 1402 L395 1395"/><path d="M850 1392 L853 1391 L855 1393 L860 1410 L866 1423 L861 1427 L858 1425 L847 1396 L847 1393 L849 1392"/><path d="M850 1390 L845 1392 L858 1428 L867 1426 L867 1422 L861 1409 L855 1390 L851 1390"/><path d="M698 1389 L699 1388 L720 1412 L719 1416 L726 1428 L725 1430 L705 1406 L698 1390"/><path d="M815 1384 L816 1383 L818 1385 L801 1403 L799 1412 L794 1405 L795 1399 L803 1391 L814 1384"/><path d="M697 1383 L697 1392 L704 1408 L738 1454 L740 1448 L726 1424 L740 1440 L743 1440 L743 1435 L698 1383"/><path d="M385 1382 L277 1630 L265 1633 L385 1383"/><path d="M815 1381 L794 1397 L793 1406 L800 1415 L802 1414 L801 1407 L807 1400 L808 1402 L810 1401 L818 1405 L824 1405 L822 1395 L819 1394 L813 1398 L810 1397 L819 1387 L818 1381 L816 1381"/><path d="M399 1374 L474 1484 L468 1492 L407 1396 L398 1374"/><path d="M518 1372 L621 1372 L528 1476 L517 1475 L517 1373"/><path d="M456 1372 L480 1373 L479 1434 L457 1373"/><path d="M420 1372 L430 1371 L432 1373 L450 1425 L449 1428 L417 1380 L420 1373"/><path d="M1724 1371 L1728 1373 L1764 1431 L1763 1434 L1758 1430 L1754 1419 L1724 1372"/><path d="M455 1370 L479 1442 L482 1442 L481 1371 L456 1370"/><path d="M621 1369 L517 1370 L516 1477 L534 1473 L622 1369"/><path d="M421 1369 L416 1382 L454 1440 L457 1439 L433 1372 L422 1369"/><path d="M665 1368 L664 1407 L669 1406 L668 1368 L666 1368"/><path d="M676 1367 L680 1366 L687 1374 L685 1379 L685 1391 L692 1410 L683 1421 L681 1409 L675 1402 L676 1368"/><path d="M676 1365 L674 1367 L674 1403 L680 1410 L680 1425 L683 1425 L693 1413 L693 1408 L686 1390 L688 1372 L682 1365 L677 1365"/><path d="M393 1361 L393 1375 L466 1495 L477 1483 L402 1371 L395 1371 L398 1365 L394 1361"/><path d="M388 1357 L271 1636 L390 1387 L275 1615 L389 1357"/><path d="M1521 1356 L1513 1382 L1508 1393 L1508 1397 L1511 1397 L1520 1374 L1525 1357 L1522 1356"/><path d="M1537 1353 L1662 1588 L1534 1363 L1537 1354"/><path d="M806 1352 L814 1372 L785 1395 L785 1415 L795 1425 L809 1424 L836 1439 L875 1511 L824 1479 L774 1422 L792 1355 L805 1352"/><path d="M1538 1350 L1533 1365 L1665 1593 L1658 1603 L1678 1594 L1661 1584 L1539 1350"/><path d="M806 1350 L791 1353 L773 1424 L822 1480 L877 1514 L837 1437 L811 1423 L799 1425 L785 1411 L786 1397 L815 1374 L807 1350"/><path d="M684 1342 L748 1412 L744 1421 L684 1352 L684 1343"/><path d="M517 1342 L522 1341 L531 1343 L549 1355 L548 1362 L518 1362 L517 1360 L519 1358 L537 1357 L537 1353 L519 1349 L517 1343"/><path d="M445 1341 L448 1340 L456 1342 L480 1343 L480 1349 L478 1351 L452 1351 L450 1354 L445 1342"/><path d="M588 1340 L647 1341 L642 1347 L580 1350 L580 1354 L631 1358 L604 1362 L567 1361 L567 1355 L587 1340"/><path d="M683 1339 L683 1354 L744 1424 L747 1424 L749 1410 L684 1339"/><path d="M663 1339 L672 1343 L552 1481 L543 1477 L662 1340"/><path d="M518 1339 L516 1341 L517 1350 L536 1355 L517 1357 L516 1363 L550 1363 L549 1352 L532 1342 L519 1339"/><path d="M444 1339 L451 1362 L481 1363 L481 1359 L467 1358 L454 1353 L481 1351 L481 1341 L445 1339"/><path d="M588 1338 L567 1352 L566 1363 L635 1359 L580 1352 L644 1348 L648 1338 L589 1338"/><path d="M776 1336 L777 1373 L688 1667 L776 1337"/><path d="M348 1335 L386 1337 L382 1343 L351 1340 L351 1343 L358 1347 L378 1351 L377 1355 L348 1351 L346 1349 L348 1336"/><path d="M775 1334 L692 1670 L778 1374 L776 1334"/><path d="M348 1333 L345 1351 L379 1356 L380 1350 L364 1348 L353 1342 L384 1344 L387 1335 L349 1333"/><path d="M669 1329 L541 1476 L548 1485 L675 1340 L670 1329"/><path d="M430 1327 L476 1460 L470 1457 L430 1328"/><path d="M431 1324 L427 1334 L469 1458 L477 1468 L480 1466 L432 1324"/><path d="M801 1314 L804 1316 L806 1342 L794 1344 L791 1332 L787 1327 L774 1325 L767 1329 L766 1347 L761 1344 L763 1343 L763 1327 L766 1324 L800 1314"/><path d="M1691 1313 L1692 1312 L1719 1353 L1718 1355 L1691 1314"/><path d="M890 1308 L892 1308 L892 1317 L885 1350 L882 1353 L880 1351 L884 1322 L886 1315 L890 1309"/><path d="M890 1305 L887 1309 L883 1321 L879 1344 L880 1354 L883 1354 L886 1351 L893 1318 L893 1305 L891 1305"/><path d="M785 1302 L793 1305 L793 1307 L766 1318 L757 1324 L757 1341 L747 1330 L746 1323 L753 1317 L784 1302"/><path d="M316 1302 L313 1308 L313 1317 L320 1331 L321 1338 L326 1344 L329 1344 L329 1337 L321 1320 L316 1315 L316 1310 L318 1309 L319 1302 L317 1302"/><path d="M784 1300 L745 1322 L750 1338 L765 1349 L767 1333 L775 1326 L788 1331 L792 1345 L808 1343 L804 1312 L763 1322 L795 1308 L785 1300"/><path d="M557 1286 L560 1285 L562 1287 L564 1306 L569 1307 L568 1313 L549 1312 L551 1301 L552 1311 L555 1311 L557 1287"/><path d="M556 1284 L555 1298 L553 1298 L553 1292 L550 1292 L548 1314 L570 1314 L568 1296 L567 1299 L565 1299 L563 1285 L557 1284"/><path d="M880 1283 L881 1282 L882 1284 L876 1312 L876 1318 L874 1320 L873 1315 L879 1284"/><path d="M880 1280 L877 1286 L874 1299 L872 1321 L876 1321 L877 1319 L877 1313 L883 1285 L883 1280 L881 1280"/><path d="M346 1274 L348 1274 L348 1297 L346 1298 L342 1296 L333 1295 L331 1293 L333 1281 L335 1279 L336 1280 L334 1285 L334 1290 L336 1290 L341 1279 L345 1275"/><path d="M341 1269 L336 1273 L332 1280 L330 1287 L330 1295 L345 1299 L349 1299 L349 1272 L345 1272 L344 1269 L342 1269"/><path d="M477 1242 L480 1330 L441 1327 L477 1243"/><path d="M1618 1238 L1621 1238 L1624 1243 L1623 1246 L1559 1269 L1555 1268 L1556 1263 L1617 1238"/><path d="M1618 1236 L1581 1253 L1554 1262 L1555 1271 L1626 1246 L1622 1236 L1619 1236"/><path d="M478 1235 L439 1325 L442 1330 L481 1332 L479 1235"/><path d="M296 1229 L297 1319 L293 1348 L285 1358 L293 1326 L296 1230"/><path d="M308 1218 L317 1222 L317 1294 L309 1298 L308 1219"/><path d="M307 1216 L308 1301 L318 1296 L318 1220 L308 1216"/><path d="M296 1213 L289 1345 L234 1411 L227 1474 L237 1416 L294 1349 L297 1213"/><path d="M479 1205 L434 1313 L437 1313 L481 1213 L480 1205"/><path d="M401 1204 L402 1203 L404 1207 L406 1220 L406 1246 L400 1267 L398 1267 L401 1205"/><path d="M504 1194 L501 1478 L490 1476 L490 1203 L503 1194"/><path d="M507 1191 L489 1201 L491 1479 L507 1478 L508 1191"/><path d="M515 1187 L530 1188 L648 1328 L586 1328 L570 1337 L577 1293 L568 1276 L555 1274 L540 1298 L550 1341 L520 1330 L516 1188"/><path d="M514 1185 L516 1328 L547 1344 L541 1299 L556 1275 L576 1294 L568 1339 L587 1329 L650 1328 L531 1186 L515 1185"/><path d="M476 1176 L484 1177 L405 1351 L391 1351 L404 1322 L399 1342 L476 1177"/><path d="M472 1176 L462 1209 L410 1317 L472 1177"/><path d="M480 1162 L462 1186 L389 1351 L400 1357 L487 1174 L481 1162"/><path d="M840 1160 L849 1162 L835 1263 L844 1352 L835 1353 L826 1278 L829 1215 L840 1161"/><path d="M315 1159 L317 1159 L316 1207 L295 1201 L291 1197 L289 1190 L290 1167 L295 1162 L314 1159"/><path d="M841 1157 L825 1250 L835 1358 L845 1354 L836 1264 L850 1160 L842 1157"/><path d="M315 1157 L294 1161 L290 1164 L288 1170 L290 1199 L293 1202 L309 1205 L315 1209 L318 1209 L318 1157 L316 1157"/><path d="M510 1154 L515 1163 L534 1162 L526 1172 L539 1169 L667 1320 L660 1324 L518 1167 L509 1180 L494 1178 L493 1157 L509 1155"/><path d="M513 1151 L490 1156 L493 1180 L512 1180 L516 1168 L517 1177 L528 1178 L659 1326 L667 1316 L535 1160 L516 1162 L514 1151"/><path d="M1530 1148 L1534 1148 L1542 1208 L1541 1272 L1534 1308 L1540 1228 L1530 1149"/><path d="M1529 1146 L1539 1229 L1532 1311 L1537 1309 L1542 1273 L1543 1207 L1535 1147 L1530 1146"/><path d="M1550 1121 L1616 1224 L1554 1251 L1550 1122"/><path d="M1550 1118 L1555 1254 L1618 1224 L1551 1118"/><path d="M834 1116 L841 1118 L815 1239 L824 1360 L813 1305 L812 1237 L833 1117"/><path d="M833 1114 L811 1236 L814 1324 L833 1403 L816 1240 L842 1119 L834 1114"/><path d="M1539 1105 L1533 1106 L1533 1109 L1538 1123 L1541 1139 L1544 1139 L1544 1135 L1542 1134 L1544 1133 L1544 1110 L1543 1106 L1540 1105"/><path d="M1558 1097 L1731 1367 L1662 1261 L1671 1289 L1559 1098"/><path d="M864 1096 L866 1103 L865 1109 L861 1114 L856 1117 L853 1117 L851 1120 L851 1125 L856 1126 L858 1128 L861 1128 L871 1104 L871 1099 L865 1096"/><path d="M685 1096 L667 1201 L669 1258 L681 1313 L665 1297 L656 1191 L659 1162 L664 1172 L684 1097"/><path d="M674 1094 L655 1227 L664 1298 L682 1320 L668 1202 L689 1095 L663 1161 L675 1094"/><path d="M816 1093 L809 1095 L809 1099 L838 1106 L842 1106 L842 1095 L817 1093"/><path d="M406 1093 L407 1092 L409 1096 L410 1128 L407 1151 L405 1151 L403 1118 L406 1094"/><path d="M1553 1091 L1569 1121 L1550 1109 L1761 1435 L1764 1411 L1554 1091"/><path d="M406 1090 L402 1117 L405 1158 L408 1157 L411 1129 L410 1095 L407 1090"/><path d="M1510 1076 L1507 1078 L1507 1082 L1518 1111 L1524 1110 L1524 1106 L1515 1081 L1511 1076"/><path d="M624 1075 L627 1076 L628 1084 L627 1154 L624 1157 L621 1110 L624 1076"/><path d="M698 1072 L690 1074 L689 1078 L691 1079 L687 1080 L687 1083 L701 1091 L712 1090 L716 1086 L717 1078 L715 1073 L699 1072"/><path d="M625 1072 L620 1093 L624 1160 L628 1158 L629 1083 L626 1072"/><path d="M1535 1041 L1537 1041 L1536 1079 L1525 1077 L1526 1044 L1534 1041"/><path d="M1535 1039 L1525 1042 L1524 1079 L1538 1080 L1537 1058 L1539 1040 L1536 1039"/><path d="M1537 1010 L1560 1012 L1552 1018 L1560 1019 L1560 1023 L1506 1031 L1499 1025 L1524 1024 L1541 1018 L1493 1016 L1491 1011 L1536 1010"/><path d="M1537 1008 L1488 1010 L1491 1017 L1536 1020 L1497 1024 L1500 1032 L1562 1024 L1562 1018 L1555 1017 L1561 1010 L1538 1008"/><path d="M491 968 L497 1039 L505 968 L505 1144 L493 1147 L490 968"/><path d="M410 968 L412 968 L415 990 L413 1026 L411 1029 L408 1008 L410 969"/><path d="M293 967 L300 971 L297 1150 L293 968"/><path d="M491 966 L486 967 L487 1148 L506 1146 L506 966 L500 968 L498 1007 L492 966"/><path d="M292 965 L295 1151 L301 1151 L301 969 L293 965"/><path d="M1554 956 L1549 957 L1549 986 L1553 985 L1556 961 L1559 983 L1573 978 L1573 969 L1570 962 L1564 958 L1555 956"/><path d="M480 932 L498 933 L498 948 L503 947 L504 933 L510 934 L511 948 L506 953 L494 954 L483 952 L480 946 L480 933"/><path d="M479 930 L480 952 L493 955 L502 955 L511 952 L511 932 L502 932 L502 945 L500 947 L498 945 L500 932 L480 930"/><path d="M566 929 L561 932 L552 930 L553 948 L555 955 L559 959 L562 959 L567 951 L567 929"/><path d="M749 928 L753 928 L752 941 L756 941 L757 934 L759 930 L762 928 L767 930 L770 935 L751 952 L749 929"/><path d="M977 926 L906 999 L855 1084 L850 1084 L902 998 L976 927"/><path d="M749 926 L749 954 L752 954 L771 937 L769 929 L760 927 L757 930 L754 940 L754 926 L750 926"/><path d="M347 923 L349 922 L352 925 L351 953 L343 953 L335 948 L331 943 L333 942 L336 933 L346 924"/><path d="M347 921 L340 926 L339 923 L333 924 L328 928 L327 931 L328 941 L332 948 L339 953 L346 955 L352 955 L353 952 L353 923 L348 921"/><path d="M1373 914 L1405 934 L1447 974 L1498 1048 L1494 1051 L1439 973 L1373 915"/><path d="M823 912 L828 916 L781 950 L732 1008 L737 995 L723 1005 L747 975 L783 940 L822 912"/><path d="M1373 911 L1370 920 L1413 951 L1448 986 L1494 1054 L1500 1051 L1455 980 L1413 938 L1374 911"/><path d="M477 911 L478 910 L491 913 L516 912 L519 914 L517 920 L514 922 L504 923 L503 920 L500 919 L498 923 L484 923 L475 918 L476 912"/><path d="M1028 909 L1030 918 L941 990 L886 1067 L879 1063 L932 987 L973 947 L1027 909"/><path d="M1027 907 L971 946 L931 985 L878 1060 L885 1069 L942 992 L1033 918 L1028 907"/><path d="M1553 906 L1558 906 L1558 923 L1561 922 L1563 908 L1566 905 L1575 906 L1576 910 L1574 922 L1566 928 L1556 930 L1553 927 L1552 907"/><path d="M1553 904 L1551 905 L1552 928 L1554 931 L1561 931 L1572 927 L1576 920 L1577 911 L1576 904 L1564 904 L1562 906 L1560 915 L1559 904 L1554 904"/><path d="M342 901 L407 908 L410 1054 L416 908 L466 906 L479 1145 L401 1303 L400 1203 L389 1326 L348 1325 L356 1262 L326 1267 L325 956 L361 948 L343 902"/><path d="M549 900 L558 968 L569 902 L622 911 L628 1026 L631 911 L740 910 L740 964 L655 1072 L650 1277 L515 1139 L512 963 L526 907 L548 901"/><path d="M483 899 L474 913 L474 920 L483 924 L500 924 L501 922 L509 924 L518 922 L520 912 L517 911 L492 912 L488 910 L513 907 L512 899 L484 899"/><path d="M343 898 L359 954 L324 952 L325 1271 L355 1264 L346 1326 L390 1328 L397 1274 L401 1310 L480 1147 L468 905 L415 906 L412 951 L408 906 L344 898"/><path d="M549 897 L525 905 L511 961 L513 1139 L651 1284 L656 1073 L741 966 L741 908 L630 909 L628 986 L623 909 L567 900 L559 967 L550 897"/><path d="M797 896 L826 896 L795 915 L780 927 L773 921 L774 897 L796 896"/><path d="M1030 893 L973 926 L920 973 L877 1031 L849 1087 L931 973 L1031 893"/><path d="M828 893 L773 895 L772 922 L777 929 L782 928 L812 906 L831 896 L831 893 L829 893"/><path d="M860 890 L799 925 L746 973 L685 1066 L724 1011 L696 1061 L703 1063 L772 962 L865 900 L845 902 L861 890"/><path d="M1561 883 L1541 919 L1563 947 L1540 954 L1541 990 L1561 1000 L1482 1000 L1400 904 L1402 883 L1448 887 L1456 951 L1458 888 L1524 885 L1529 945 L1534 886 L1560 883"/><path d="M1382 883 L1375 886 L1361 885 L1357 889 L1357 892 L1379 905 L1382 905 L1384 890 L1383 883"/><path d="M979 882 L993 900 L907 973 L839 1083 L803 1093 L824 1114 L801 1294 L736 1320 L764 1357 L752 1397 L698 1328 L681 1249 L692 1119 L727 1088 L713 1063 L820 934 L978 882"/><path d="M1400 881 L1406 923 L1480 1001 L1561 1002 L1542 988 L1541 955 L1564 940 L1544 930 L1542 914 L1565 881 L1533 884 L1529 933 L1526 884 L1456 887 L1454 949 L1451 887 L1401 881"/><path d="M1189 881 L1413 979 L1516 1210 L1436 986 L1529 1246 L1424 1508 L1344 1572 L1481 1411 L1515 1227 L1405 1500 L1161 1623 L931 1508 L847 1244 L960 987 L1188 881"/><path d="M979 880 L818 933 L711 1062 L726 1087 L691 1118 L680 1250 L698 1332 L750 1400 L765 1355 L737 1321 L803 1295 L825 1115 L804 1094 L840 1085 L908 975 L995 901 L980 880"/><path d="M1189 879 L959 985 L846 1243 L922 1500 L1149 1624 L1406 1502 L1517 1230 L1474 1421 L1312 1590 L1402 1533 L1529 1268 L1444 992 L1381 939 L1517 1206 L1413 976 L1190 879"/><path d="M562 871 L601 870 L657 885 L585 886 L578 891 L749 895 L589 898 L569 890 L563 872"/><path d="M337 871 L478 870 L478 882 L359 884 L476 890 L474 896 L356 894 L344 889 L338 872"/><path d="M1047 870 L1027 874 L1022 876 L1020 879 L1022 881 L1041 880 L1052 882 L1053 870 L1048 870"/><path d="M514 869 L557 870 L551 877 L550 888 L537 894 L518 897 L515 891 L539 890 L539 887 L514 884 L513 870"/><path d="M325 869 L320 882 L336 872 L343 891 L372 897 L476 897 L480 889 L362 886 L480 883 L480 869 L326 869"/><path d="M1010 868 L1004 870 L999 875 L996 893 L1005 893 L1008 876 L1011 892 L1018 890 L1018 887 L1012 882 L1012 877 L1019 869 L1011 868"/><path d="M513 867 L512 885 L534 888 L512 890 L516 898 L551 890 L561 872 L567 891 L598 900 L755 893 L587 893 L675 886 L621 868 L514 867"/><path d="M1326 863 L1293 864 L1293 867 L1305 869 L1330 866 L1330 863 L1327 863"/><path d="M1186 862 L1261 866 L1301 877 L1303 887 L1221 871 L1164 872 L1110 883 L1109 874 L1185 862"/><path d="M1186 860 L1108 873 L1108 885 L1165 873 L1220 872 L1301 888 L1304 877 L1271 867 L1187 860"/><path d="M1568 855 L1573 863 L1560 873 L1409 876 L1389 867 L1364 876 L1356 866 L1539 865 L1568 856"/><path d="M1568 852 L1538 864 L1351 863 L1362 877 L1395 868 L1408 877 L1566 873 L1574 865 L1569 852"/><path d="M1279 850 L1408 852 L1238 855 L1278 850"/><path d="M1279 848 L1223 852 L1493 857 L1280 848"/><path d="M1470 846 L1521 846 L1521 848 L1471 847"/><path d="M1369 841 L1411 841 L1411 843 L1370 842"/><path d="M1338 839 L1320 844 L1549 853 L1559 849 L1339 839"/><path d="M1052 829 L1063 828 L1074 836 L1078 846 L1077 858 L1065 856 L1045 856 L1043 854 L1046 834 L1051 829"/><path d="M1132 828 L1185 828 L1189 832 L1191 851 L1122 860 L1085 859 L1081 829 L1131 828"/><path d="M1052 827 L1046 830 L1042 855 L1044 857 L1064 857 L1072 859 L1079 859 L1079 845 L1075 834 L1064 827 L1053 827"/><path d="M1132 826 L1079 827 L1083 860 L1117 862 L1192 852 L1187 827 L1133 826"/><path d="M1035 826 L974 858 L824 883 L655 873 L620 841 L639 837 L635 862 L668 872 L816 876 L957 859 L1034 827"/><path d="M913 813 L1025 822 L931 854 L798 866 L643 855 L654 845 L775 820 L912 813"/><path d="M913 811 L665 840 L642 857 L735 867 L893 860 L992 841 L1023 818 L914 811"/><path d="M1082 807 L1096 807 L1099 811 L1100 816 L1068 817 L1068 807 L1075 807 L1078 815 L1081 814 L1081 808"/><path d="M1082 805 L1080 806 L1079 813 L1077 810 L1077 806 L1066 806 L1066 818 L1091 819 L1101 818 L1099 807 L1093 805 L1083 805"/><path d="M1147 804 L1152 803 L1154 805 L1155 814 L1158 814 L1160 803 L1174 804 L1176 806 L1177 816 L1145 816 L1144 812 L1146 805"/><path d="M1147 802 L1144 804 L1143 817 L1178 818 L1177 804 L1170 802 L1158 802 L1156 813 L1154 802 L1148 802"/><path d="M1416 798 L1424 799 L1404 811 L1364 823 L1229 839 L1351 822 L1416 799"/><path d="M1137 793 L1141 793 L1136 797 L1133 805 L1134 815 L1120 817 L1110 816 L1110 810 L1106 802 L1136 793"/><path d="M1140 790 L1127 795 L1105 800 L1105 804 L1109 811 L1109 818 L1135 817 L1134 806 L1137 799 L1143 794 L1143 790 L1141 790"/><path d="M1297 776 L1380 779 L1406 787 L1400 796 L1347 813 L1207 832 L1187 817 L1182 786 L1296 776"/><path d="M825 775 L873 778 L777 792 L882 788 L888 802 L647 835 L649 823 L757 795 L652 812 L666 800 L824 775"/><path d="M1297 774 L1180 785 L1185 818 L1199 833 L1348 814 L1402 797 L1410 787 L1386 779 L1298 774"/><path d="M917 774 L980 775 L1040 791 L1051 804 L991 785 L928 786 L1010 798 L1039 809 L1042 821 L1002 805 L902 801 L916 775"/><path d="M856 772 L618 819 L634 867 L748 884 L1038 831 L939 785 L1046 792 L916 772 L896 803 L1031 815 L994 847 L645 866 L674 827 L893 803 L782 790 L857 772"/><path d="M1139 753 L1142 754 L1141 760 L1117 767 L1113 774 L1119 775 L1141 768 L1142 781 L1102 793 L1100 771 L1114 761 L1138 753"/><path d="M1139 751 L1100 768 L1100 794 L1143 783 L1143 767 L1118 774 L1114 772 L1123 766 L1143 761 L1143 753 L1140 751"/><path d="M643 744 L646 744 L649 756 L649 769 L647 773 L652 775 L645 778 L640 771 L630 772 L626 761 L628 752 L635 746 L642 744"/><path d="M643 742 L630 747 L625 755 L629 774 L638 772 L642 779 L657 775 L663 763 L660 746 L657 742 L653 742 L653 768 L650 770 L648 745 L644 742"/><path d="M890 740 L889 756 L891 775 L893 780 L895 780 L896 746 L894 740 L891 740"/><path d="M1361 739 L1395 742 L1429 761 L1397 755 L1430 783 L1426 798 L1424 787 L1403 773 L1340 764 L1344 754 L1379 751 L1346 746 L1360 739"/><path d="M1361 737 L1343 746 L1372 751 L1336 765 L1402 774 L1422 797 L1350 821 L1201 842 L1355 826 L1420 805 L1431 781 L1400 757 L1437 766 L1362 737"/><path d="M1284 736 L1314 743 L1190 758 L1318 751 L1324 764 L1187 776 L1183 746 L1283 736"/><path d="M1284 734 L1183 744 L1180 777 L1327 765 L1320 750 L1194 757 L1317 745 L1285 734"/><path d="M1044 734 L1048 733 L1053 737 L1058 753 L1056 760 L1035 764 L1031 761 L1031 739 L1036 735 L1039 759 L1042 759 L1044 735"/><path d="M1045 731 L1043 732 L1041 755 L1039 754 L1037 743 L1038 732 L1031 735 L1029 757 L1032 765 L1058 761 L1059 752 L1056 739 L1053 734 L1046 731"/><path d="M1540 718 L1543 718 L1540 838 L1533 836 L1534 721 L1539 718"/><path d="M1542 715 L1533 719 L1532 838 L1542 839 L1543 715"/><path d="M1426 707 L1428 735 L1445 730 L1439 714 L1434 709 L1427 707"/><path d="M888 706 L890 705 L894 710 L899 732 L886 731 L881 741 L876 737 L874 727 L876 710 L879 708 L879 732 L882 732 L883 719 L887 707"/><path d="M888 703 L883 713 L881 729 L880 705 L878 704 L875 709 L874 735 L880 743 L883 743 L884 736 L888 732 L894 732 L898 737 L901 737 L895 709 L889 703"/><path d="M1073 694 L1077 694 L1081 767 L1083 695 L1091 696 L1091 795 L1076 797 L1074 695"/><path d="M1072 692 L1074 798 L1092 797 L1092 695 L1082 693 L1080 720 L1078 692 L1073 692"/><path d="M1152 691 L1157 691 L1156 765 L1163 693 L1173 693 L1170 790 L1152 791 L1152 692"/><path d="M1155 688 L1151 689 L1150 792 L1171 792 L1174 692 L1163 689 L1158 735 L1156 688"/><path d="M1255 684 L1257 684 L1258 724 L1256 725 L1254 721 L1255 685"/><path d="M949 675 L951 675 L956 698 L953 718 L951 718 L951 712 L948 704 L949 676"/><path d="M1321 672 L1320 692 L1316 674 L1312 675 L1309 682 L1308 698 L1313 709 L1318 709 L1321 702 L1328 697 L1337 702 L1333 680 L1328 674 L1322 672"/><path d="M1515 666 L1563 667 L1557 676 L1549 680 L1522 679 L1517 675 L1547 674 L1548 670 L1524 671 L1515 667"/><path d="M1514 664 L1514 669 L1523 672 L1515 673 L1518 679 L1544 682 L1559 677 L1563 672 L1564 665 L1515 664"/><path d="M1085 657 L1090 656 L1092 659 L1092 680 L1090 683 L1072 683 L1069 680 L1069 660 L1072 660 L1074 677 L1077 677 L1079 659 L1084 657"/><path d="M1055 656 L1060 657 L1065 721 L1064 732 L1059 726 L1060 706 L1055 657"/><path d="M1152 654 L1154 654 L1155 670 L1158 670 L1160 658 L1162 655 L1174 657 L1176 659 L1175 678 L1173 680 L1165 678 L1150 678 L1148 676 L1151 655"/><path d="M1090 654 L1078 657 L1077 668 L1075 670 L1073 658 L1068 658 L1068 681 L1071 684 L1092 684 L1093 658 L1091 654"/><path d="M1054 653 L1059 707 L1058 728 L1064 740 L1067 740 L1066 691 L1062 684 L1061 655 L1055 653"/><path d="M1151 652 L1147 678 L1175 681 L1177 657 L1160 654 L1157 668 L1155 652 L1152 652"/><path d="M1423 646 L1503 664 L1525 712 L1522 837 L1391 831 L1435 809 L1452 777 L1456 725 L1443 702 L1427 697 L1423 647"/><path d="M1423 643 L1426 699 L1441 703 L1455 726 L1451 776 L1433 808 L1384 832 L1525 836 L1521 688 L1505 663 L1424 643"/><path d="M705 636 L707 636 L711 651 L713 676 L712 682 L709 678 L709 672 L705 657 L705 637"/><path d="M1254 632 L1256 632 L1258 644 L1256 670 L1257 672 L1255 675 L1254 674 L1254 662 L1252 651 L1252 640 L1254 633"/><path d="M703 625 L704 658 L709 683 L714 682 L713 655 L706 625 L704 625"/><path d="M488 624 L496 770 L504 625 L502 894 L490 892 L488 625"/><path d="M488 621 L495 895 L505 893 L505 623 L498 659 L489 621"/><path d="M1040 616 L1043 616 L1050 720 L1041 720 L1033 644 L1040 629 L1040 617"/><path d="M1039 614 L1039 628 L1032 638 L1040 722 L1051 723 L1044 614 L1040 614"/><path d="M1055 611 L1057 610 L1062 616 L1065 627 L1065 643 L1063 645 L1060 643 L1057 638 L1056 632 L1061 631 L1062 626 L1060 623 L1054 623 L1055 612"/><path d="M1055 608 L1053 613 L1053 630 L1056 639 L1061 647 L1064 647 L1066 644 L1066 626 L1061 611 L1058 608 L1056 608"/><path d="M1072 605 L1073 604 L1074 607 L1083 607 L1090 611 L1097 622 L1097 630 L1093 639 L1084 644 L1075 643 L1084 635 L1085 627 L1078 616 L1070 613 L1067 607 L1071 605"/><path d="M1195 603 L1197 602 L1201 606 L1204 619 L1204 633 L1201 642 L1199 644 L1194 636 L1188 632 L1199 631 L1199 628 L1183 625 L1189 620 L1191 609 L1194 604"/><path d="M1194 601 L1190 608 L1189 617 L1181 623 L1181 626 L1197 629 L1184 630 L1185 633 L1193 638 L1197 645 L1201 645 L1204 639 L1205 618 L1201 603 L1195 601"/><path d="M1561 598 L1693 623 L1597 626 L1676 634 L1519 658 L1573 644 L1425 633 L1580 631 L1433 623 L1590 617 L1498 611 L1560 598"/><path d="M1560 596 L1494 612 L1572 617 L1421 624 L1535 627 L1423 631 L1536 645 L1497 648 L1515 659 L1687 634 L1609 626 L1710 626 L1561 596"/><path d="M1090 595 L1091 594 L1103 607 L1106 614 L1105 624 L1104 618 L1099 609 L1095 606 L1084 604 L1081 602 L1089 599 L1090 596"/><path d="M484 594 L495 594 L497 606 L500 606 L502 596 L504 594 L508 594 L509 601 L506 610 L487 609 L484 606 L484 595"/><path d="M506 591 L505 593 L501 594 L499 602 L497 600 L497 593 L483 592 L484 609 L507 611 L509 608 L509 591 L507 591"/><path d="M1219 580 L1220 579 L1223 582 L1225 587 L1223 614 L1215 636 L1215 619 L1220 597 L1219 581"/><path d="M1219 576 L1219 596 L1212 637 L1214 639 L1218 635 L1226 603 L1226 586 L1220 576"/><path d="M990 574 L999 574 L1007 586 L1011 621 L1008 633 L1014 631 L1018 622 L1017 606 L1032 616 L1022 632 L995 639 L985 628 L976 585 L978 576 L989 574"/><path d="M964 574 L966 574 L965 587 L973 628 L979 642 L987 648 L974 647 L962 630 L957 581 L963 575"/><path d="M1194 573 L1192 574 L1192 578 L1196 586 L1196 591 L1208 601 L1209 606 L1212 606 L1212 591 L1210 582 L1205 576 L1199 573 L1195 573"/><path d="M1065 573 L1069 573 L1074 589 L1084 593 L1076 576 L1078 572 L1085 579 L1091 594 L1060 598 L1049 603 L1039 594 L1038 581 L1043 576 L1064 573"/><path d="M964 572 L956 580 L960 627 L966 642 L972 648 L991 650 L991 647 L984 644 L976 633 L966 586 L968 572 L965 572"/><path d="M1065 571 L1040 576 L1037 591 L1047 605 L1088 597 L1066 605 L1084 628 L1075 645 L1093 642 L1098 631 L1096 615 L1084 606 L1101 615 L1102 632 L1107 613 L1086 577 L1075 571 L1077 589 L1066 571"/><path d="M1008 570 L1017 614 L1012 630 L1005 577 L997 572 L975 576 L983 626 L993 640 L1024 633 L1033 618 L1018 604 L1018 578 L1009 570"/><path d="M1156 569 L1171 573 L1172 597 L1183 581 L1189 586 L1182 613 L1173 623 L1174 641 L1170 619 L1181 602 L1174 601 L1165 609 L1163 645 L1148 630 L1150 612 L1164 602 L1164 597 L1152 596 L1149 575 L1155 569"/><path d="M1030 568 L1031 567 L1034 571 L1034 575 L1031 582 L1031 596 L1035 604 L1033 605 L1029 603 L1023 594 L1023 587 L1025 581 L1030 575 L1030 569"/><path d="M483 568 L506 568 L506 570 L498 571 L498 575 L505 576 L511 580 L510 581 L482 580 L480 578 L495 575 L495 572 L484 569"/><path d="M1160 566 L1151 569 L1147 578 L1150 597 L1163 599 L1150 609 L1147 631 L1162 646 L1164 615 L1175 602 L1180 604 L1170 614 L1169 635 L1173 643 L1177 640 L1174 624 L1183 615 L1190 584 L1181 579 L1173 595 L1173 573 L1161 566"/><path d="M482 566 L482 570 L490 571 L493 574 L477 577 L477 580 L492 582 L514 582 L514 579 L499 573 L501 571 L510 571 L510 568 L483 566"/><path d="M1023 561 L1023 564 L1025 564 L1029 569 L1029 574 L1024 579 L1022 595 L1027 604 L1038 607 L1038 604 L1032 595 L1032 583 L1035 576 L1035 570 L1029 562 L1024 561"/><path d="M632 559 L639 558 L644 564 L646 585 L641 591 L629 589 L624 586 L618 578 L616 569 L617 563 L619 561 L631 559"/><path d="M632 557 L616 561 L615 570 L619 584 L622 587 L635 592 L645 591 L647 586 L647 573 L643 559 L641 557 L633 557"/><path d="M1311 519 L1316 519 L1315 539 L1312 546 L1305 551 L1296 543 L1294 522 L1301 522 L1303 546 L1306 546 L1308 520 L1310 519"/><path d="M606 519 L603 527 L604 544 L601 555 L604 565 L608 564 L609 558 L612 555 L612 544 L607 539 L606 528 L609 522 L609 519 L607 519"/><path d="M1311 517 L1307 518 L1305 541 L1302 521 L1300 519 L1293 520 L1295 544 L1303 552 L1311 550 L1316 540 L1317 517 L1312 517"/><path d="M1053 516 L1039 528 L1038 549 L1042 548 L1048 535 L1056 525 L1056 518 L1054 516"/><path d="M871 515 L880 515 L879 544 L873 550 L869 550 L867 548 L870 546 L871 541 L871 516"/><path d="M874 512 L870 513 L869 541 L866 515 L857 515 L861 544 L868 551 L877 550 L880 545 L881 513 L875 512"/><path d="M1291 496 L1303 564 L1317 497 L1367 514 L1370 617 L1379 519 L1403 534 L1416 735 L1375 725 L1371 654 L1364 726 L1326 661 L1317 731 L1260 725 L1256 629 L1254 725 L1183 735 L1183 646 L1235 592 L1174 540 L1138 574 L1142 737 L1101 758 L1118 617 L1078 535 L1116 532 L1124 590 L1125 528 L1244 508 L1257 570 L1290 496"/><path d="M1290 494 L1256 529 L1123 527 L1122 560 L1077 533 L1117 618 L1099 761 L1142 741 L1139 575 L1175 541 L1233 584 L1226 637 L1183 641 L1181 736 L1318 732 L1299 688 L1325 662 L1340 734 L1370 670 L1374 727 L1417 737 L1404 532 L1378 515 L1373 569 L1365 508 L1316 496 L1300 562 L1291 494"/><path d="M880 479 L945 538 L951 498 L1009 522 L945 595 L965 657 L1024 647 L1031 776 L958 761 L948 666 L947 762 L903 770 L879 693 L883 768 L728 774 L711 704 L717 775 L647 797 L674 758 L634 732 L621 602 L655 595 L631 528 L687 525 L706 612 L699 516 L858 482 L879 561 L880 480"/><path d="M879 476 L874 561 L860 481 L698 515 L704 611 L687 522 L629 527 L633 733 L673 759 L646 799 L718 777 L713 706 L726 775 L885 770 L880 694 L901 774 L950 762 L952 721 L957 763 L1034 776 L1025 645 L967 656 L946 594 L1010 520 L948 497 L946 531 L880 476"/><path d="M1316 474 L1364 480 L1393 495 L1373 492 L1373 495 L1386 501 L1387 505 L1367 498 L1337 494 L1319 484 L1316 475"/><path d="M1266 473 L1290 479 L1213 492 L1281 486 L1096 522 L1170 494 L1076 516 L1075 506 L1265 473"/><path d="M1314 472 L1316 484 L1327 491 L1385 505 L1415 529 L1420 529 L1420 524 L1379 495 L1401 502 L1389 489 L1357 477 L1315 472"/><path d="M1266 471 L1074 505 L1077 517 L1146 501 L1080 524 L1269 495 L1288 484 L1228 488 L1291 480 L1294 471 L1267 471"/><path d="M490 467 L495 468 L496 518 L502 467 L501 559 L490 557 L490 468"/><path d="M489 465 L489 559 L503 560 L503 465 L499 465 L497 477 L495 465 L490 465"/><path d="M879 459 L983 473 L1006 489 L969 474 L938 475 L983 489 L1028 517 L972 491 L902 480 L879 460"/><path d="M878 457 L878 466 L896 479 L971 492 L1025 519 L1027 513 L999 495 L939 473 L975 477 L1008 493 L994 476 L879 457"/><path d="M852 457 L744 480 L837 478 L654 516 L710 488 L630 504 L709 478 L851 457"/><path d="M852 455 L698 480 L627 504 L703 490 L648 518 L848 476 L757 479 L857 466 L853 455"/><path d="M488 432 L495 432 L497 434 L497 447 L500 446 L501 434 L504 434 L504 450 L501 455 L492 454 L487 450 L488 433"/><path d="M487 430 L486 451 L488 454 L496 456 L502 456 L504 454 L505 432 L500 432 L499 437 L496 431 L488 430"/><path d="M1541 409 L1544 416 L1539 520 L1541 410"/><path d="M1540 406 L1538 537 L1541 537 L1545 417 L1541 406"/><path d="M483 378 L491 377 L494 391 L498 391 L500 388 L504 393 L499 406 L505 421 L493 422 L490 420 L496 415 L497 394 L493 395 L491 409 L487 409 L480 400 L482 379"/><path d="M482 376 L479 387 L479 402 L485 410 L493 410 L494 396 L497 397 L495 414 L487 419 L492 423 L507 422 L501 410 L501 400 L505 391 L499 385 L495 389 L493 376 L483 376"/><path d="M488 329 L486 336 L486 366 L491 366 L494 336 L493 329 L489 329"/><path d="M474 314 L476 313 L507 316 L509 320 L507 321 L500 318 L491 317 L474 319 L473 315"/><path d="M474 312 L472 314 L473 321 L479 321 L477 323 L478 328 L481 328 L485 323 L488 322 L495 323 L499 328 L507 327 L506 324 L510 322 L510 316 L505 314 L475 312"/><path d="M580 290 L644 302 L721 339 L745 369 L742 385 L725 400 L736 368 L717 344 L662 315 L581 291"/><path d="M338 276 L344 278 L255 303 L237 314 L226 327 L229 313 L259 292 L297 281 L337 276"/><path d="M408 272 L473 272 L501 277 L371 277 L367 274 L407 272"/><path d="M395 270 L369 272 L363 277 L522 276 L396 270"/><path d="M414 267 L609 290 L725 354 L715 407 L746 361 L710 415 L512 432 L533 392 L501 337 L580 342 L537 311 L402 323 L479 335 L476 437 L226 348 L227 310 L350 278 L296 278 L413 267"/><path d="M408 265 L252 291 L222 346 L318 403 L478 438 L480 333 L403 325 L550 316 L565 356 L540 321 L500 335 L533 439 L706 418 L749 389 L745 356 L622 292 L409 265"/><path d="M378 258 L760 368 L512 450 L516 861 L754 457 L1357 467 L1423 615 L1545 399 L1728 626 L1550 712 L1792 1460 L1555 1280 L1699 1642 L1555 1420 L1189 1650 L764 1460 L683 1743 L657 1379 L485 1519 L402 1408 L229 1700 L304 889 L480 861 L477 442 L207 333 L377 258"/><path d="M376 256 L206 334 L476 444 L479 859 L303 888 L227 1696 L403 1411 L656 1382 L670 1744 L764 1462 L1190 1651 L1521 1433 L1700 1644 L1556 1282 L1793 1459 L1546 1080 L1551 713 L1729 625 L1547 398 L1422 614 L1358 466 L753 456 L515 859 L513 451 L761 367 L377 256"/>
  </g>
</svg>
