<svg xmlns="http://www.w3.org/2000/svg" viewBox="0 0 500 1290" width="500" height="1290">
<title>Guitar traced vector</title>
<g fill="#fff" fill-rule="evenodd">
  <path d="M 261.00 16.00 C 249.83 16.33 225.17 20.50 216.00 24.00 C 206.83 27.50 207.00 30.50 206.00 37.00 C 205.00 43.50 214.00 58.50 210.00 63.00 C 206.00 67.50 186.00 61.50 182.00 64.00 C 178.00 66.50 181.17 77.33 186.00 78.00 C 190.83 78.67 206.83 65.33 211.00 68.00 C 215.17 70.67 213.00 90.67 211.00 94.00 C 209.00 97.33 203.50 88.00 199.00 88.00 C 194.50 88.00 186.00 91.17 184.00 94.00 C 182.00 96.83 182.67 104.50 187.00 105.00 C 191.33 105.50 206.17 94.67 210.00 97.00 C 213.83 99.33 213.50 115.83 210.00 119.00 C 206.50 122.17 193.33 114.50 189.00 116.00 C 184.67 117.50 181.00 125.50 184.00 128.00 C 187.00 130.50 203.83 127.00 207.00 131.00 C 210.17 135.00 201.33 147.83 203.00 152.00 C 204.67 156.17 213.50 153.00 217.00 156.00 C 220.50 159.00 223.83 91.33 224.00 170.00 C 224.17 248.67 222.83 551.00 218.00 628.00 C 213.17 705.00 199.50 633.50 195.00 632.00 C 190.50 630.50 196.33 620.00 191.00 619.00 C 185.67 618.00 175.50 613.67 163.00 626.00 C 150.50 638.33 124.17 675.50 116.00 693.00 C 107.83 710.50 109.67 714.00 114.00 731.00 C 118.33 748.00 137.33 780.50 142.00 795.00 C 146.67 809.50 150.33 803.50 142.00 818.00 C 133.67 832.50 105.00 862.50 92.00 882.00 C 79.00 901.50 69.17 913.50 64.00 935.00 C 58.83 956.50 57.83 991.00 61.00 1011.00 C 64.17 1031.00 87.17 1041.00 83.00 1055.00 C 78.83 1069.00 45.50 1072.50 36.00 1095.00 C 26.50 1117.50 24.00 1170.67 26.00 1190.00 C 28.00 1209.33 34.67 1202.50 48.00 1211.00 C 61.33 1219.50 76.00 1231.50 106.00 1241.00 C 136.00 1250.50 197.50 1265.67 228.00 1268.00 C 258.50 1270.33 274.67 1260.33 289.00 1255.00 C 303.33 1249.67 308.50 1241.83 314.00 1236.00 C 319.50 1230.17 323.83 1232.33 322.00 1220.00 C 320.17 1207.67 311.50 1174.67 303.00 1162.00 C 294.50 1149.33 280.17 1146.33 271.00 1144.00 C 261.83 1141.67 253.17 1148.67 248.00 1148.00 C 242.83 1147.33 227.00 1142.17 240.00 1140.00 C 253.00 1137.83 301.33 1139.83 326.00 1135.00 C 350.67 1130.17 370.17 1121.17 388.00 1111.00 C 405.83 1100.83 421.33 1093.00 433.00 1074.00 C 444.67 1055.00 454.00 1015.50 458.00 997.00 C 462.00 978.50 459.50 976.00 457.00 963.00 C 454.50 950.00 455.67 940.00 443.00 919.00 C 430.33 898.00 392.83 854.33 381.00 837.00 C 369.17 819.67 373.00 823.17 372.00 815.00 C 371.00 806.83 370.17 802.00 375.00 788.00 C 379.83 774.00 397.00 747.00 401.00 731.00 C 405.00 715.00 401.67 699.33 399.00 692.00 C 396.33 684.67 391.67 683.67 385.00 687.00 C 378.33 690.33 367.67 707.00 359.00 712.00 C 350.33 717.00 340.50 717.50 333.00 717.00 C 325.50 716.50 320.33 714.17 314.00 709.00 C 307.67 703.83 299.50 695.17 295.00 686.00 C 290.50 676.83 289.33 697.50 287.00 654.00 C 284.67 610.50 291.33 463.17 281.00 425.00 C 270.67 386.83 225.00 425.67 225.00 425.00 C 225.00 424.33 272.17 442.33 281.00 421.00 C 289.83 399.67 287.17 318.00 278.00 297.00 C 268.83 276.00 226.00 295.83 226.00 295.00 C 226.00 294.17 269.83 313.00 278.00 292.00 C 286.17 271.00 272.00 192.50 275.00 169.00 C 278.00 145.50 292.83 157.67 296.00 151.00 C 299.17 144.33 290.50 132.50 294.00 129.00 C 297.50 125.50 313.50 132.33 317.00 130.00 C 320.50 127.67 318.83 116.33 315.00 115.00 C 311.17 113.67 298.33 121.83 294.00 122.00 C 289.67 122.17 290.00 120.33 289.00 116.00 C 288.00 111.67 284.00 98.33 288.00 96.00 C 292.00 93.67 308.67 103.83 313.00 102.00 C 317.33 100.17 318.00 86.67 314.00 85.00 C 310.00 83.33 293.00 95.33 289.00 92.00 C 285.00 88.67 285.67 67.67 290.00 65.00 C 294.33 62.33 310.33 77.17 315.00 76.00 C 319.67 74.83 321.83 60.17 318.00 58.00 C 314.17 55.83 296.17 66.83 292.00 63.00 C 287.83 59.17 294.50 41.83 293.00 35.00 C 291.50 28.17 288.33 25.17 283.00 22.00 C 277.67 18.83 272.17 15.67 261.00 16.00 Z"/>
  <path d="M 293.00 691.00 C 295.00 692.50 294.17 699.17 300.00 706.00 C 305.83 712.83 313.33 701.50 328.00 732.00 C 342.67 762.50 378.00 860.83 388.00 889.00 C 398.00 917.17 390.67 896.50 388.00 901.00 C 385.33 905.50 385.00 914.83 372.00 916.00 C 359.00 917.17 321.00 918.33 310.00 908.00 C 299.00 897.67 306.83 861.83 306.00 854.00 C 305.17 846.17 306.17 860.67 305.00 861.00 C 303.83 861.33 306.00 856.50 299.00 856.00 C 292.00 855.50 264.83 857.17 263.00 858.00 C 261.17 858.83 283.83 859.67 288.00 861.00 C 292.17 862.33 294.83 865.17 288.00 866.00 C 281.17 866.83 254.50 866.67 247.00 866.00 C 239.50 865.33 245.00 862.00 243.00 862.00 C 241.00 862.00 237.33 866.17 235.00 866.00 C 232.67 865.83 231.00 860.67 229.00 861.00 C 227.00 861.33 225.67 867.67 223.00 868.00 C 220.33 868.33 215.00 858.17 213.00 863.00 C 211.00 867.83 209.83 890.17 211.00 897.00 C 212.17 903.83 219.00 908.17 220.00 904.00 C 221.00 899.83 216.33 878.00 217.00 872.00 C 217.67 866.00 222.33 862.50 224.00 868.00 C 225.67 873.50 225.50 899.50 227.00 905.00 C 228.50 910.50 231.83 905.17 233.00 901.00 C 234.17 896.83 232.83 882.67 234.00 880.00 C 235.17 877.33 239.33 881.17 240.00 885.00 C 240.67 888.83 237.00 900.17 238.00 903.00 C 239.00 905.83 245.17 905.17 246.00 902.00 C 246.83 898.83 242.50 887.83 243.00 884.00 C 243.50 880.17 247.17 875.50 249.00 879.00 C 250.83 882.50 245.50 901.67 254.00 905.00 C 262.50 908.33 292.00 898.67 300.00 899.00 C 308.00 899.33 304.17 904.83 302.00 907.00 C 299.83 909.17 287.00 910.83 287.00 912.00 C 287.00 913.17 297.67 911.17 302.00 914.00 C 306.33 916.83 308.67 927.83 313.00 929.00 C 317.33 930.17 323.83 921.00 328.00 921.00 C 332.17 921.00 334.67 928.33 338.00 929.00 C 341.33 929.67 342.50 924.83 348.00 925.00 C 353.50 925.17 363.67 931.33 371.00 930.00 C 378.33 928.67 387.00 921.17 392.00 917.00 C 397.00 912.83 399.50 909.67 401.00 905.00 C 402.50 900.33 400.17 891.67 401.00 889.00 C 401.83 886.33 400.67 882.17 406.00 889.00 C 411.33 895.83 426.83 917.50 433.00 930.00 C 439.17 942.50 441.17 952.17 443.00 964.00 C 444.83 975.83 445.00 992.83 444.00 1001.00 C 443.00 1009.17 437.50 1009.17 437.00 1013.00 C 436.50 1016.83 441.67 1020.67 441.00 1024.00 C 440.33 1027.33 434.50 1029.50 433.00 1033.00 C 431.50 1036.50 435.00 1039.33 432.00 1045.00 C 429.00 1050.67 419.83 1063.00 415.00 1067.00 C 410.17 1071.00 404.83 1066.00 403.00 1069.00 C 401.17 1072.00 408.17 1079.33 404.00 1085.00 C 399.83 1090.67 392.50 1096.33 378.00 1103.00 C 363.50 1109.67 328.33 1121.83 317.00 1125.00 C 305.67 1128.17 311.33 1125.33 310.00 1122.00 C 308.67 1118.67 309.17 1106.17 309.00 1105.00 C 308.83 1103.83 310.33 1112.00 309.00 1115.00 C 307.67 1118.00 309.00 1119.50 301.00 1123.00 C 293.00 1126.50 269.17 1135.50 261.00 1136.00 C 252.83 1136.50 253.17 1128.83 252.00 1126.00 C 250.83 1123.17 254.33 1118.50 254.00 1119.00 C 253.67 1119.50 252.50 1126.50 250.00 1129.00 C 247.50 1131.50 247.17 1137.00 239.00 1134.00 C 230.83 1131.00 208.67 1114.17 201.00 1111.00 C 193.33 1107.83 199.00 1116.50 193.00 1115.00 C 187.00 1113.50 171.17 1104.00 165.00 1102.00 C 158.83 1100.00 163.50 1106.50 156.00 1103.00 C 148.50 1099.50 127.17 1084.67 120.00 1081.00 C 112.83 1077.33 115.67 1079.17 113.00 1081.00 C 110.33 1082.83 113.33 1085.50 104.00 1092.00 C 94.67 1098.50 66.17 1115.33 57.00 1120.00 C 47.83 1124.67 50.67 1121.67 49.00 1120.00 C 47.33 1118.33 45.83 1115.00 47.00 1110.00 C 48.17 1105.00 49.33 1097.33 56.00 1090.00 C 62.67 1082.67 79.50 1068.83 87.00 1066.00 C 94.50 1063.17 102.67 1083.33 101.00 1073.00 C 99.33 1062.67 80.33 1026.83 77.00 1004.00 C 73.67 981.17 76.83 953.83 81.00 936.00 C 85.17 918.17 89.67 913.83 102.00 897.00 C 114.33 880.17 145.17 849.00 155.00 835.00 C 164.83 821.00 160.17 820.50 161.00 813.00 C 161.83 805.50 161.50 794.50 160.00 790.00 C 158.50 785.50 155.67 791.50 152.00 786.00 C 148.33 780.50 141.33 766.33 138.00 757.00 C 134.67 747.67 130.00 735.50 132.00 730.00 C 134.00 724.50 147.33 723.83 150.00 724.00 C 152.67 724.17 146.33 728.50 148.00 731.00 C 149.67 733.50 153.83 738.67 160.00 739.00 C 166.17 739.33 180.00 732.50 185.00 733.00 C 190.00 733.50 189.83 739.50 190.00 742.00 C 190.17 744.50 186.17 741.50 186.00 748.00 C 185.83 754.50 185.33 773.67 189.00 781.00 C 192.67 788.33 204.17 788.17 208.00 792.00 C 211.83 795.83 209.83 802.83 212.00 804.00 C 214.17 805.17 219.33 802.17 221.00 799.00 C 222.67 795.83 225.33 787.67 222.00 785.00 C 218.67 782.33 205.00 784.17 201.00 783.00 C 197.00 781.83 198.00 787.17 198.00 778.00 C 198.00 768.83 199.00 736.17 201.00 728.00 C 203.00 719.83 209.00 727.83 210.00 729.00 C 211.00 730.17 206.50 733.33 207.00 735.00 C 207.50 736.67 212.00 732.17 213.00 739.00 C 214.00 745.83 212.33 769.33 213.00 776.00 C 213.67 782.67 203.67 778.33 217.00 779.00 C 230.33 779.67 278.17 781.00 293.00 780.00 C 307.83 779.00 303.50 773.50 306.00 773.00 C 308.50 772.50 308.83 775.83 308.00 777.00 C 307.17 778.17 301.17 778.67 301.00 780.00 C 300.83 781.33 305.33 784.83 307.00 785.00 C 308.67 785.17 310.50 789.50 311.00 781.00 C 311.50 772.50 317.00 742.00 310.00 734.00 C 303.00 726.00 272.50 734.33 269.00 733.00 C 265.50 731.67 285.83 732.00 289.00 726.00 C 292.17 720.00 287.33 702.83 288.00 697.00 C 288.67 691.17 291.00 689.50 293.00 691.00 Z"/>
  <path d="M 50.00 1140.00 C 59.50 1129.83 104.50 1103.33 116.00 1096.00 C 127.50 1088.67 114.33 1093.17 119.00 1096.00 C 123.67 1098.83 136.00 1108.50 144.00 1113.00 C 152.00 1117.50 159.00 1120.00 167.00 1123.00 C 175.00 1126.00 182.17 1128.67 192.00 1131.00 C 201.83 1133.33 220.33 1133.33 226.00 1137.00 C 231.67 1140.67 227.33 1147.00 226.00 1153.00 C 224.67 1159.00 219.33 1168.33 218.00 1173.00 C 216.67 1177.67 217.50 1178.83 218.00 1181.00 C 218.50 1183.17 219.33 1184.50 221.00 1186.00 C 222.67 1187.50 224.50 1189.17 228.00 1190.00 C 231.50 1190.83 238.33 1189.50 242.00 1191.00 C 245.67 1192.50 245.17 1198.33 250.00 1199.00 C 254.83 1199.67 267.33 1195.00 271.00 1195.00 C 274.67 1195.00 274.83 1194.83 272.00 1199.00 C 269.17 1203.17 261.00 1213.83 254.00 1220.00 C 247.00 1226.17 235.33 1233.00 230.00 1236.00 C 224.67 1239.00 227.50 1238.00 222.00 1238.00 C 216.50 1238.00 214.33 1241.33 197.00 1236.00 C 179.67 1230.67 138.83 1216.83 118.00 1206.00 C 97.17 1195.17 81.83 1179.17 72.00 1171.00 C 62.17 1162.83 62.67 1162.17 59.00 1157.00 C 55.33 1151.83 40.50 1150.17 50.00 1140.00 Z"/>
  <path d="M 275.00 29.00 C 278.67 29.17 276.17 30.83 276.00 32.00 C 275.83 33.17 274.83 35.33 274.00 36.00 C 273.17 36.67 271.50 35.17 271.00 36.00 C 270.50 36.83 270.50 39.17 271.00 41.00 C 271.50 42.83 272.67 45.83 274.00 47.00 C 275.33 48.17 278.17 47.17 279.00 48.00 C 279.83 48.83 279.67 50.17 279.00 52.00 C 278.33 53.83 276.00 55.00 275.00 59.00 C 274.00 63.00 272.83 71.67 273.00 76.00 C 273.17 80.33 276.33 82.33 276.00 85.00 C 275.67 87.67 271.33 90.00 271.00 92.00 C 270.67 94.00 273.83 94.00 274.00 97.00 C 274.17 100.00 271.33 107.17 272.00 110.00 C 272.67 112.83 277.00 112.17 278.00 114.00 C 279.00 115.83 278.50 119.17 278.00 121.00 C 277.50 122.83 277.33 124.33 275.00 125.00 C 272.67 125.67 266.50 125.83 264.00 125.00 C 261.50 124.17 260.83 122.67 260.00 120.00 C 259.17 117.33 262.00 112.00 259.00 109.00 C 256.00 106.00 245.17 104.67 242.00 102.00 C 238.83 99.33 239.50 94.67 240.00 93.00 C 240.50 91.33 244.00 93.00 245.00 92.00 C 246.00 91.00 247.17 87.50 246.00 87.00 C 244.83 86.50 238.83 83.83 238.00 89.00 C 237.17 94.17 241.83 110.83 241.00 118.00 C 240.17 125.17 234.50 127.33 233.00 132.00 C 231.50 136.67 232.67 143.50 232.00 146.00 C 231.33 148.50 229.67 150.67 229.00 147.00 C 228.33 143.33 228.83 128.17 228.00 124.00 C 227.17 119.83 225.33 121.83 224.00 122.00 C 222.67 122.17 221.33 124.67 220.00 125.00 C 218.67 125.33 216.50 124.67 216.00 124.00 C 215.50 123.33 216.17 121.67 217.00 121.00 C 217.83 120.33 220.33 121.00 221.00 120.00 C 221.67 119.00 220.17 115.83 221.00 115.00 C 221.83 114.17 224.50 115.83 226.00 115.00 C 227.50 114.17 229.33 113.50 230.00 110.00 C 230.67 106.50 231.33 98.33 230.00 94.00 C 228.67 89.67 223.00 86.33 222.00 84.00 C 221.00 81.67 223.00 80.67 224.00 80.00 C 225.00 79.33 227.50 82.67 228.00 80.00 C 228.50 77.33 227.67 67.50 227.00 64.00 C 226.33 60.50 224.33 60.50 224.00 59.00 C 223.67 57.50 225.50 56.00 225.00 55.00 C 224.50 54.00 221.67 53.83 221.00 53.00 C 220.33 52.17 220.33 50.83 221.00 50.00 C 221.67 49.17 222.00 48.17 225.00 48.00 C 228.00 47.83 236.50 48.17 239.00 49.00 C 241.50 49.83 240.83 52.00 240.00 53.00 C 239.17 54.00 234.67 53.67 234.00 55.00 C 233.33 56.33 235.50 60.67 236.00 61.00 C 236.50 61.33 234.33 57.50 237.00 57.00 C 239.67 56.50 250.17 58.33 252.00 58.00 C 253.83 57.67 248.67 56.17 248.00 55.00 C 247.33 53.83 246.83 52.17 248.00 51.00 C 249.17 49.83 252.83 47.83 255.00 48.00 C 257.17 48.17 259.67 50.17 261.00 52.00 C 262.33 53.83 262.00 59.83 263.00 59.00 C 264.00 58.17 266.83 50.67 267.00 47.00 C 267.17 43.33 267.00 38.33 264.00 37.00 C 261.00 35.67 252.17 37.50 249.00 39.00 C 245.83 40.50 246.33 45.00 245.00 46.00 C 243.67 47.00 241.67 46.00 241.00 45.00 C 240.33 44.00 241.67 40.67 241.00 40.00 C 240.33 39.33 238.00 40.00 237.00 41.00 C 236.00 42.00 236.00 44.83 235.00 46.00 C 234.00 47.17 231.67 49.67 231.00 48.00 C 230.33 46.33 228.17 38.50 231.00 36.00 C 233.83 33.50 244.83 34.33 248.00 33.00 C 251.17 31.67 249.17 28.83 250.00 28.00 C 250.83 27.17 252.33 27.50 253.00 28.00 C 253.67 28.50 250.33 30.83 254.00 31.00 C 257.67 31.17 271.33 28.83 275.00 29.00 Z"/>
  <path d="M 227.00 618.00 C 228.33 615.33 229.67 617.83 230.00 619.00 C 230.33 620.17 228.67 623.83 229.00 625.00 C 229.33 626.17 223.33 626.00 232.00 626.00 C 240.67 626.00 272.17 624.83 281.00 625.00 C 289.83 625.17 284.50 626.17 285.00 627.00 C 285.50 627.83 293.50 629.33 284.00 630.00 C 274.50 630.67 228.83 630.50 228.00 631.00 C 227.17 631.50 270.50 632.17 279.00 633.00 C 287.50 633.83 280.33 634.67 279.00 636.00 C 277.67 637.33 278.67 640.17 271.00 641.00 C 263.33 641.83 239.83 641.33 233.00 641.00 C 226.17 640.67 230.50 638.67 230.00 639.00 C 229.50 639.33 222.83 642.33 230.00 643.00 C 237.17 643.67 265.67 642.50 273.00 643.00 C 280.33 643.50 281.17 645.17 274.00 646.00 C 266.83 646.83 237.00 647.33 230.00 648.00 C 223.00 648.67 229.50 649.67 232.00 650.00 C 234.50 650.33 242.17 649.33 245.00 650.00 C 247.83 650.67 251.50 652.67 249.00 654.00 C 246.50 655.33 231.67 657.17 230.00 658.00 C 228.33 658.83 237.33 658.33 239.00 659.00 C 240.67 659.67 241.67 661.17 240.00 662.00 C 238.33 662.83 230.83 663.33 229.00 664.00 C 227.17 664.67 220.83 665.83 229.00 666.00 C 237.17 666.17 269.17 665.00 278.00 665.00 C 286.83 665.00 281.17 665.17 282.00 666.00 C 282.83 666.83 283.33 669.00 283.00 670.00 C 282.67 671.00 288.33 671.50 280.00 672.00 C 271.67 672.50 241.33 673.17 233.00 673.00 C 224.67 672.83 230.33 669.83 230.00 671.00 C 229.67 672.17 229.50 678.00 231.00 680.00 C 232.50 682.00 238.17 681.67 239.00 683.00 C 239.83 684.33 237.50 687.17 236.00 688.00 C 234.50 688.83 231.00 686.83 230.00 688.00 C 229.00 689.17 229.83 694.17 230.00 695.00 C 230.17 695.83 226.50 693.17 231.00 693.00 C 235.50 692.83 252.67 695.83 257.00 694.00 C 261.33 692.17 256.33 684.33 257.00 682.00 C 257.67 679.67 260.17 678.00 261.00 680.00 C 261.83 682.00 259.50 691.67 262.00 694.00 C 264.50 696.33 273.50 693.33 276.00 694.00 C 278.50 694.67 277.67 695.83 277.00 698.00 C 276.33 700.17 273.50 705.83 272.00 707.00 C 270.50 708.17 268.67 706.00 268.00 705.00 C 267.33 704.00 269.00 701.67 268.00 701.00 C 267.00 700.33 262.83 700.33 262.00 701.00 C 261.17 701.67 263.83 704.17 263.00 705.00 C 262.17 705.83 258.00 706.67 257.00 706.00 C 256.00 705.33 258.00 701.67 257.00 701.00 C 256.00 700.33 252.50 702.17 251.00 702.00 C 249.50 701.83 250.00 700.00 248.00 700.00 C 246.00 700.00 240.17 701.50 239.00 702.00 C 237.83 702.50 240.83 702.33 241.00 703.00 C 241.17 703.67 240.83 705.50 240.00 706.00 C 239.17 706.50 236.83 706.67 236.00 706.00 C 235.17 705.33 235.83 702.83 235.00 702.00 C 234.17 701.17 231.00 700.50 231.00 701.00 C 231.00 701.50 235.33 704.00 235.00 705.00 C 234.67 706.00 227.00 706.33 229.00 707.00 C 231.00 707.67 244.50 707.83 247.00 709.00 C 249.50 710.17 245.33 713.17 244.00 714.00 C 242.67 714.83 239.17 713.67 239.00 714.00 C 238.83 714.33 242.83 715.17 243.00 716.00 C 243.17 716.83 239.33 718.17 240.00 719.00 C 240.67 719.83 240.00 720.83 247.00 721.00 C 254.00 721.17 275.67 719.83 282.00 720.00 C 288.33 720.17 284.67 721.00 285.00 722.00 C 285.33 723.00 293.00 725.33 284.00 726.00 C 275.00 726.67 240.67 725.00 231.00 726.00 C 221.33 727.00 228.33 731.67 226.00 732.00 C 223.67 732.33 217.83 729.33 217.00 728.00 C 216.17 726.67 220.17 728.50 221.00 724.00 C 221.83 719.50 221.50 705.33 222.00 701.00 C 222.50 696.67 224.00 699.50 224.00 698.00 C 224.00 696.50 222.33 702.50 222.00 692.00 C 221.67 681.50 221.17 647.33 222.00 635.00 C 222.83 622.67 225.67 620.67 227.00 618.00 Z"/>
  <path d="M 257.00 1152.00 C 259.00 1152.00 261.50 1156.00 264.00 1157.00 C 266.50 1158.00 270.33 1157.17 272.00 1158.00 C 273.67 1158.83 274.17 1161.17 274.00 1162.00 C 273.83 1162.83 268.33 1161.67 271.00 1163.00 C 273.67 1164.33 285.50 1166.33 290.00 1170.00 C 294.50 1173.67 297.17 1181.17 298.00 1185.00 C 298.83 1188.83 294.00 1188.33 295.00 1193.00 C 296.00 1197.67 302.33 1207.50 304.00 1213.00 C 305.67 1218.50 305.50 1223.00 305.00 1226.00 C 304.50 1229.00 307.00 1227.00 301.00 1231.00 C 295.00 1235.00 278.17 1246.00 269.00 1250.00 C 259.83 1254.00 251.67 1254.67 246.00 1255.00 C 240.33 1255.33 238.33 1252.33 235.00 1252.00 C 231.67 1251.67 227.67 1253.33 226.00 1253.00 C 224.33 1252.67 223.83 1251.33 225.00 1250.00 C 226.17 1248.67 228.17 1247.00 233.00 1245.00 C 237.83 1243.00 247.83 1241.33 254.00 1238.00 C 260.17 1234.67 267.00 1228.17 270.00 1225.00 C 273.00 1221.83 270.50 1220.67 272.00 1219.00 C 273.50 1217.33 277.17 1218.00 279.00 1215.00 C 280.83 1212.00 283.00 1205.83 283.00 1201.00 C 283.00 1196.17 281.67 1188.83 279.00 1186.00 C 276.33 1183.17 271.67 1184.00 267.00 1184.00 C 262.33 1184.00 256.17 1187.17 251.00 1186.00 C 245.83 1184.83 238.17 1179.17 236.00 1177.00 C 233.83 1174.83 236.67 1173.83 238.00 1173.00 C 239.33 1172.17 244.33 1173.17 244.00 1172.00 C 243.67 1170.83 236.83 1168.17 236.00 1166.00 C 235.17 1163.83 236.33 1160.50 239.00 1159.00 C 241.67 1157.50 249.00 1158.17 252.00 1157.00 C 255.00 1155.83 255.00 1152.00 257.00 1152.00 Z"/>
  <path d="M 194.00 853.00 C 193.33 859.00 194.00 882.17 193.00 890.00 C 192.00 897.83 187.17 896.33 188.00 900.00 C 188.83 903.67 196.83 909.00 198.00 912.00 C 199.17 915.00 195.00 916.33 195.00 918.00 C 195.00 919.67 197.83 920.50 198.00 922.00 C 198.17 923.50 195.67 924.00 196.00 927.00 C 196.33 930.00 198.17 937.33 200.00 940.00 C 201.83 942.67 205.33 941.67 207.00 943.00 C 208.67 944.33 210.00 945.83 210.00 948.00 C 210.00 950.17 206.83 954.67 207.00 956.00 C 207.17 957.33 210.00 956.67 211.00 956.00 C 212.00 955.33 212.00 952.33 213.00 952.00 C 214.00 951.67 217.50 952.00 217.00 954.00 C 216.50 956.00 212.83 962.17 210.00 964.00 C 207.17 965.83 199.67 964.83 200.00 965.00 C 200.33 965.17 209.67 963.33 212.00 965.00 C 214.33 966.67 212.17 972.83 214.00 975.00 C 215.83 977.17 210.00 977.50 223.00 978.00 C 236.00 978.50 280.33 977.50 292.00 978.00 C 303.67 978.50 292.33 980.83 293.00 981.00 C 293.67 981.17 296.00 979.50 296.00 979.00 C 296.00 978.50 293.50 978.67 293.00 978.00 C 292.50 977.33 292.17 975.67 293.00 975.00 C 293.83 974.33 297.33 975.67 298.00 974.00 C 298.67 972.33 296.67 967.00 297.00 965.00 C 297.33 963.00 300.83 963.17 300.00 962.00 C 299.17 960.83 293.33 959.50 292.00 958.00 C 290.67 956.50 292.83 952.17 292.00 953.00 C 291.17 953.83 289.50 961.50 287.00 963.00 C 284.50 964.50 279.50 961.67 277.00 962.00 C 274.50 962.33 273.67 965.17 272.00 965.00 C 270.33 964.83 267.83 964.00 267.00 961.00 C 266.17 958.00 266.33 950.33 267.00 947.00 C 267.67 943.67 269.83 942.00 271.00 941.00 C 272.17 940.00 272.83 939.83 274.00 941.00 C 275.17 942.17 276.50 948.00 278.00 948.00 C 279.50 948.00 281.50 942.17 283.00 941.00 C 284.50 939.83 286.00 939.83 287.00 941.00 C 288.00 942.17 287.17 946.83 289.00 948.00 C 290.83 949.17 296.50 948.83 298.00 948.00 C 299.50 947.17 296.33 944.50 298.00 943.00 C 299.67 941.50 306.33 940.50 308.00 939.00 C 309.67 937.50 308.33 935.00 308.00 934.00 C 307.67 933.00 307.17 932.50 306.00 933.00 C 304.83 933.50 304.00 936.33 301.00 937.00 C 298.00 937.67 290.50 937.67 288.00 937.00 C 285.50 936.33 285.50 933.83 286.00 933.00 C 286.50 932.17 290.33 932.50 291.00 932.00 C 291.67 931.50 293.67 930.33 290.00 930.00 C 286.33 929.67 272.83 930.67 269.00 930.00 C 265.17 929.33 267.33 925.83 267.00 926.00 C 266.67 926.17 268.00 930.00 267.00 931.00 C 266.00 932.00 262.00 931.50 261.00 932.00 C 260.00 932.50 260.33 933.83 261.00 934.00 C 261.67 934.17 264.17 932.67 265.00 933.00 C 265.83 933.33 266.33 935.17 266.00 936.00 C 265.67 936.83 264.50 937.83 263.00 938.00 C 261.50 938.17 258.50 938.50 257.00 937.00 C 255.50 935.50 253.33 930.83 254.00 929.00 C 254.67 927.17 259.50 927.67 261.00 926.00 C 262.50 924.33 263.17 920.00 263.00 919.00 C 262.83 918.00 260.83 918.83 260.00 920.00 C 259.17 921.17 259.50 924.67 258.00 926.00 C 256.50 927.33 251.67 926.67 251.00 928.00 C 250.33 929.33 254.50 932.33 254.00 934.00 C 253.50 935.67 250.00 938.00 248.00 938.00 C 246.00 938.00 243.83 934.17 242.00 934.00 C 240.17 933.83 239.00 936.83 237.00 937.00 C 235.00 937.17 232.00 935.00 230.00 935.00 C 228.00 935.00 225.83 931.50 225.00 937.00 C 224.17 942.50 223.83 963.33 225.00 968.00 C 226.17 972.67 230.67 970.00 232.00 965.00 C 233.33 960.00 232.33 942.67 233.00 938.00 C 233.67 933.33 235.00 935.83 236.00 937.00 C 237.00 938.17 238.50 939.67 239.00 945.00 C 239.50 950.33 238.17 965.33 239.00 969.00 C 239.83 972.67 243.00 971.50 244.00 967.00 C 245.00 962.50 244.17 946.50 245.00 942.00 C 245.83 937.50 248.00 939.83 249.00 940.00 C 250.00 940.17 250.33 938.67 251.00 943.00 C 251.67 947.33 252.17 962.17 253.00 966.00 C 253.83 969.83 255.33 966.50 256.00 966.00 C 256.67 965.50 257.17 964.00 257.00 963.00 C 256.83 962.00 255.17 963.33 255.00 960.00 C 254.83 956.67 255.50 946.17 256.00 943.00 C 256.50 939.83 257.00 941.00 258.00 941.00 C 259.00 941.00 260.83 941.83 262.00 943.00 C 263.17 944.17 264.83 943.00 265.00 948.00 C 265.17 953.00 263.67 968.50 263.00 973.00 C 262.33 977.50 268.00 974.67 261.00 975.00 C 254.00 975.33 228.17 975.50 221.00 975.00 C 213.83 974.50 218.33 973.50 218.00 972.00 C 217.67 970.50 219.50 968.17 219.00 966.00 C 218.50 963.83 214.83 960.83 215.00 959.00 C 215.17 957.17 219.17 958.67 220.00 955.00 C 220.83 951.33 222.50 939.83 220.00 937.00 C 217.50 934.17 208.33 938.83 205.00 938.00 C 201.67 937.17 200.83 934.17 200.00 932.00 C 199.17 929.83 199.00 927.50 200.00 925.00 C 201.00 922.50 204.17 918.67 206.00 917.00 C 207.83 915.33 208.67 914.00 211.00 915.00 C 213.33 916.00 218.50 923.83 220.00 923.00 C 221.50 922.17 223.67 912.17 220.00 910.00 C 216.33 907.83 202.00 911.00 198.00 910.00 C 194.00 909.00 196.00 906.67 196.00 904.00 C 196.00 901.33 197.83 901.00 198.00 894.00 C 198.17 887.00 197.50 867.83 197.00 862.00 C 196.50 856.17 195.00 860.33 195.00 859.00 C 195.00 857.67 197.17 855.00 197.00 854.00 C 196.83 853.00 194.67 847.00 194.00 853.00 Z"/>
  <path d="M 290.00 785.00 C 288.33 773.67 281.67 784.50 279.00 785.00 C 276.33 785.50 276.50 788.00 274.00 788.00 C 271.50 788.00 271.83 785.33 264.00 785.00 C 256.17 784.67 233.17 775.00 227.00 786.00 C 220.83 797.00 226.00 840.33 227.00 851.00 C 228.00 861.67 232.33 855.67 233.00 850.00 C 233.67 844.33 230.83 826.83 231.00 817.00 C 231.17 807.17 232.83 795.50 234.00 791.00 C 235.17 786.50 236.83 789.33 238.00 790.00 C 239.17 790.67 240.83 793.17 241.00 795.00 C 241.17 796.83 239.00 795.67 239.00 801.00 C 239.00 806.33 241.00 818.83 241.00 827.00 C 241.00 835.17 238.33 846.17 239.00 850.00 C 239.67 853.83 243.83 850.50 245.00 850.00 C 246.17 849.50 246.33 849.50 246.00 847.00 C 245.67 844.50 243.50 843.50 243.00 835.00 C 242.50 826.50 242.33 803.33 243.00 796.00 C 243.67 788.67 245.50 791.33 247.00 791.00 C 248.50 790.67 250.83 787.33 252.00 794.00 C 253.17 800.67 254.17 824.00 254.00 831.00 C 253.83 838.00 251.50 832.83 251.00 836.00 C 250.50 839.17 250.33 847.50 251.00 850.00 C 251.67 852.50 253.83 851.17 255.00 851.00 C 256.17 850.83 258.00 852.17 258.00 849.00 C 258.00 845.83 255.17 841.00 255.00 832.00 C 254.83 823.00 256.33 801.83 257.00 795.00 C 257.67 788.17 258.17 791.50 259.00 791.00 C 259.83 790.50 261.00 789.83 262.00 792.00 C 263.00 794.17 263.67 804.00 265.00 804.00 C 266.33 804.00 268.67 794.17 270.00 792.00 C 271.33 789.83 272.17 789.83 273.00 791.00 C 273.83 792.17 274.67 791.33 275.00 799.00 C 275.33 806.67 275.83 829.00 275.00 837.00 C 274.17 845.00 272.00 845.33 270.00 847.00 C 268.00 848.67 264.00 846.67 263.00 847.00 C 262.00 847.33 262.83 848.83 264.00 849.00 C 265.17 849.17 265.83 847.33 270.00 848.00 C 274.17 848.67 285.67 863.50 289.00 853.00 C 292.33 842.50 291.67 796.33 290.00 785.00 Z"/>
  <path d="M 167.00 648.00 C 170.67 645.67 179.17 641.33 183.00 640.00 C 186.83 638.67 188.67 639.50 190.00 640.00 C 191.33 640.50 187.67 642.33 191.00 643.00 C 194.33 643.67 206.83 642.17 210.00 644.00 C 213.17 645.83 211.50 651.67 210.00 654.00 C 208.50 656.33 202.00 656.17 201.00 658.00 C 200.00 659.83 205.00 663.33 204.00 665.00 C 203.00 666.67 195.17 667.17 195.00 668.00 C 194.83 668.83 201.00 669.00 203.00 670.00 C 205.00 671.00 206.67 672.17 207.00 674.00 C 207.33 675.83 205.00 678.83 205.00 681.00 C 205.00 683.17 207.33 685.17 207.00 687.00 C 206.67 688.83 202.83 690.83 203.00 692.00 C 203.17 693.17 207.00 692.67 208.00 694.00 C 209.00 695.33 207.67 698.50 209.00 700.00 C 210.33 701.50 215.67 700.50 216.00 703.00 C 216.33 705.50 214.00 713.83 211.00 715.00 C 208.00 716.17 199.83 712.17 198.00 710.00 C 196.17 707.83 200.67 704.17 200.00 702.00 C 199.33 699.83 195.00 700.50 194.00 697.00 C 193.00 693.50 194.50 683.50 194.00 681.00 C 193.50 678.50 193.50 683.17 191.00 682.00 C 188.50 680.83 181.00 676.00 179.00 674.00 C 177.00 672.00 178.00 670.83 179.00 670.00 C 180.00 669.17 184.17 669.50 185.00 669.00 C 185.83 668.50 185.50 667.17 184.00 667.00 C 182.50 666.83 177.67 667.33 176.00 668.00 C 174.33 668.67 175.67 670.83 174.00 671.00 C 172.33 671.17 169.17 668.67 166.00 669.00 C 162.83 669.33 157.67 672.50 155.00 673.00 C 152.33 673.50 150.83 673.33 150.00 672.00 C 149.17 670.67 149.00 667.00 150.00 665.00 C 151.00 663.00 154.33 660.83 156.00 660.00 C 157.67 659.17 159.17 661.00 160.00 660.00 C 160.83 659.00 159.83 656.00 161.00 654.00 C 162.17 652.00 163.33 650.33 167.00 648.00 Z"/>
  <path d="M 164.00 682.00 C 167.67 681.33 171.00 680.50 175.00 683.00 C 179.00 685.50 186.17 691.83 188.00 697.00 C 189.83 702.17 187.50 709.83 186.00 714.00 C 184.50 718.17 181.67 720.00 179.00 722.00 C 176.33 724.00 172.67 725.33 170.00 726.00 C 167.33 726.67 165.67 726.67 163.00 726.00 C 160.33 725.33 157.00 725.00 154.00 722.00 C 151.00 719.00 146.50 711.83 145.00 708.00 C 143.50 704.17 143.67 702.50 145.00 699.00 C 146.33 695.50 149.83 689.83 153.00 687.00 C 156.17 684.17 160.33 682.67 164.00 682.00 Z"/>
  <path d="M 42.00 1161.00 C 42.83 1158.33 42.67 1157.83 45.00 1160.00 C 47.33 1162.17 54.00 1170.67 56.00 1174.00 C 58.00 1177.33 55.50 1178.67 57.00 1180.00 C 58.50 1181.33 62.00 1180.50 65.00 1182.00 C 68.00 1183.50 72.50 1186.67 75.00 1189.00 C 77.50 1191.33 77.00 1193.33 80.00 1196.00 C 83.00 1198.67 90.33 1202.50 93.00 1205.00 C 95.67 1207.50 95.00 1210.33 96.00 1211.00 C 97.00 1211.67 96.50 1207.83 99.00 1209.00 C 101.50 1210.17 107.67 1216.17 111.00 1218.00 C 114.33 1219.83 116.17 1218.17 119.00 1220.00 C 121.83 1221.83 126.50 1227.00 128.00 1229.00 C 129.50 1231.00 128.67 1231.33 128.00 1232.00 C 127.33 1232.67 125.83 1233.67 124.00 1233.00 C 122.17 1232.33 120.83 1229.33 117.00 1228.00 C 113.17 1226.67 104.33 1226.33 101.00 1225.00 C 97.67 1223.67 99.83 1221.83 97.00 1220.00 C 94.17 1218.17 87.17 1215.00 84.00 1214.00 C 80.83 1213.00 79.50 1214.67 78.00 1214.00 C 76.50 1213.33 77.33 1211.33 75.00 1210.00 C 72.67 1208.67 69.17 1209.67 64.00 1206.00 C 58.83 1202.33 48.00 1193.00 44.00 1188.00 C 40.00 1183.00 40.33 1180.50 40.00 1176.00 C 39.67 1171.50 41.17 1163.67 42.00 1161.00 Z"/>
  <path d="M 386.00 722.00 C 389.50 724.33 385.67 736.83 385.00 741.00 C 384.33 745.17 383.67 745.17 382.00 747.00 C 380.33 748.83 376.50 749.50 375.00 752.00 C 373.50 754.50 374.83 757.17 373.00 762.00 C 371.17 766.83 366.50 777.67 364.00 781.00 C 361.50 784.33 359.83 784.67 358.00 782.00 C 356.17 779.33 353.17 768.17 353.00 765.00 C 352.83 761.83 357.83 764.50 357.00 763.00 C 356.17 761.50 349.67 758.67 348.00 756.00 C 346.33 753.33 346.83 749.33 347.00 747.00 C 347.17 744.67 349.17 743.33 349.00 742.00 C 348.83 740.67 346.50 740.50 346.00 739.00 C 345.50 737.50 345.17 734.83 346.00 733.00 C 346.83 731.17 348.67 728.33 351.00 728.00 C 353.33 727.67 357.83 731.17 360.00 731.00 C 362.17 730.83 359.67 728.50 364.00 727.00 C 368.33 725.50 382.50 719.67 386.00 722.00 Z"/>
  <path d="M 245.00 124.00 C 247.33 121.50 247.50 127.83 249.00 128.00 C 250.50 128.17 251.50 123.33 254.00 125.00 C 256.50 126.67 262.33 133.00 264.00 138.00 C 265.67 143.00 263.17 149.50 264.00 155.00 C 264.83 160.50 269.50 167.50 269.00 171.00 C 268.50 174.50 266.17 175.17 261.00 176.00 C 255.83 176.83 242.67 176.50 238.00 176.00 C 233.33 175.50 233.50 178.50 233.00 173.00 C 232.50 167.50 233.00 151.17 235.00 143.00 C 237.00 134.83 242.67 126.50 245.00 124.00 Z"/>
  <path d="M 291.00 740.00 C 291.67 742.50 291.00 748.50 290.00 751.00 C 289.00 753.50 288.00 754.67 285.00 755.00 C 282.00 755.33 275.33 754.33 272.00 753.00 C 268.67 751.67 266.83 747.00 265.00 747.00 C 263.17 747.00 262.17 752.00 261.00 753.00 C 259.83 754.00 258.83 754.17 258.00 753.00 C 257.17 751.83 256.00 747.67 256.00 746.00 C 256.00 744.33 257.00 743.50 258.00 743.00 C 259.00 742.50 263.83 743.17 262.00 743.00 C 260.17 742.83 249.50 741.83 247.00 742.00 C 244.50 742.17 246.17 743.67 247.00 744.00 C 247.83 744.33 251.00 743.33 252.00 744.00 C 253.00 744.67 254.00 746.33 253.00 748.00 C 252.00 749.67 248.67 753.50 246.00 754.00 C 243.33 754.50 239.17 750.83 237.00 751.00 C 234.83 751.17 235.17 754.17 233.00 755.00 C 230.83 755.83 226.67 757.17 224.00 756.00 C 221.33 754.83 217.83 750.50 217.00 748.00 C 216.17 745.50 217.67 742.83 219.00 741.00 C 220.33 739.17 213.83 737.83 225.00 737.00 C 236.17 736.17 275.00 735.50 286.00 736.00 C 297.00 736.50 290.33 737.50 291.00 740.00 Z"/>
  <path d="M 292.00 756.00 C 298.33 756.33 290.00 758.33 290.00 760.00 C 290.00 761.67 292.17 763.67 292.00 766.00 C 291.83 768.33 291.00 773.17 289.00 774.00 C 287.00 774.83 281.83 771.17 280.00 771.00 C 278.17 770.83 279.83 772.67 278.00 773.00 C 276.17 773.33 270.83 772.33 269.00 773.00 C 267.17 773.67 267.83 776.33 267.00 777.00 C 266.17 777.67 264.67 777.67 264.00 777.00 C 263.33 776.33 264.33 773.83 263.00 773.00 C 261.67 772.17 257.50 771.50 256.00 772.00 C 254.50 772.50 255.67 775.83 254.00 776.00 C 252.33 776.17 247.67 772.83 246.00 773.00 C 244.33 773.17 247.83 776.17 244.00 777.00 C 240.17 777.83 227.67 779.17 223.00 778.00 C 218.33 776.83 217.00 772.50 216.00 770.00 C 215.00 767.50 215.83 764.83 217.00 763.00 C 218.17 761.17 220.00 759.50 223.00 759.00 C 226.00 758.50 233.50 759.00 235.00 760.00 C 236.50 761.00 233.67 764.50 232.00 765.00 C 230.33 765.50 225.50 762.33 225.00 763.00 C 224.50 763.67 227.50 768.67 229.00 769.00 C 230.50 769.33 232.17 765.67 234.00 765.00 C 235.83 764.33 238.83 764.33 240.00 765.00 C 241.17 765.67 239.83 769.17 241.00 769.00 C 242.17 768.83 245.00 764.33 247.00 764.00 C 249.00 763.67 250.17 767.00 253.00 767.00 C 255.83 767.00 262.33 764.83 264.00 764.00 C 265.67 763.17 265.17 762.17 263.00 762.00 C 260.83 761.83 252.83 763.67 251.00 763.00 C 249.17 762.33 245.17 759.17 252.00 758.00 C 258.83 756.83 285.67 755.67 292.00 756.00 Z"/>
  <path d="M 264.00 183.00 C 267.00 184.33 265.00 187.17 264.00 189.00 C 263.00 190.83 259.00 191.50 258.00 194.00 C 257.00 196.50 259.17 202.50 258.00 204.00 C 256.83 205.50 252.67 201.50 251.00 203.00 C 249.33 204.50 250.00 211.00 248.00 213.00 C 246.00 215.00 241.00 216.17 239.00 215.00 C 237.00 213.83 236.67 211.17 236.00 206.00 C 235.33 200.83 234.00 187.67 235.00 184.00 C 236.00 180.33 240.17 184.50 242.00 184.00 C 243.83 183.50 242.33 181.17 246.00 181.00 C 249.67 180.83 261.00 181.67 264.00 183.00 Z"/>
  <path d="M 235.00 336.00 C 239.83 335.00 262.00 332.00 267.00 335.00 C 272.00 338.00 265.67 350.50 265.00 354.00 C 264.33 357.50 267.17 355.67 263.00 356.00 C 258.83 356.33 244.00 356.67 240.00 356.00 C 236.00 355.33 238.83 353.00 239.00 352.00 C 239.17 351.00 241.33 351.00 241.00 350.00 C 240.67 349.00 237.50 347.50 237.00 346.00 C 236.50 344.50 238.33 342.67 238.00 341.00 C 237.67 339.33 230.17 337.00 235.00 336.00 Z"/>
  <path d="M 233.00 456.00 C 238.67 453.17 265.33 454.67 272.00 455.00 C 278.67 455.33 273.67 456.33 273.00 458.00 C 272.33 459.67 269.00 462.67 268.00 465.00 C 267.00 467.33 272.00 470.83 267.00 472.00 C 262.00 473.17 243.67 474.67 238.00 472.00 C 232.33 469.33 227.33 458.83 233.00 456.00 Z"/>
  <path d="M 233.00 401.00 C 233.00 398.33 230.67 399.33 237.00 399.00 C 243.33 398.67 265.17 398.33 271.00 399.00 C 276.83 399.67 272.67 400.17 272.00 403.00 C 271.33 405.83 271.50 413.67 267.00 416.00 C 262.50 418.33 250.00 417.17 245.00 417.00 C 240.00 416.83 239.00 417.67 237.00 415.00 C 235.00 412.33 233.00 403.67 233.00 401.00 Z"/>
  <path d="M 234.00 268.00 L 266.00 267.00 L 264.00 286.00 L 240.00 287.00 Z"/>
  <path d="M 292.00 987.00 C 287.50 985.00 268.83 984.00 262.00 984.00 C 255.17 984.00 256.50 986.33 251.00 987.00 C 245.50 987.67 233.33 987.17 229.00 988.00 C 224.67 988.83 224.17 991.83 225.00 992.00 C 225.83 992.17 231.67 989.00 234.00 989.00 C 236.33 989.00 237.00 991.67 239.00 992.00 C 241.00 992.33 242.67 990.17 246.00 991.00 C 249.33 991.83 251.83 996.17 259.00 997.00 C 266.17 997.83 283.50 997.67 289.00 996.00 C 294.50 994.33 296.50 989.00 292.00 987.00 Z"/>
  <path d="M 232.00 532.00 L 273.00 531.00 L 274.00 535.00 L 270.00 544.00 L 237.00 545.00 Z"/>
  <path d="M 232.00 595.00 L 273.00 594.00 L 274.00 600.00 L 268.00 606.00 L 237.00 606.00 Z"/>
  <path d="M 333.00 832.00 C 330.83 830.67 333.17 835.67 332.00 837.00 C 330.83 838.33 325.33 838.67 326.00 840.00 C 326.67 841.33 334.00 842.67 336.00 845.00 C 338.00 847.33 340.17 852.50 338.00 854.00 C 335.83 855.50 324.00 853.50 323.00 854.00 C 322.00 854.50 331.50 854.67 332.00 857.00 C 332.50 859.33 325.33 867.67 326.00 868.00 C 326.67 868.33 333.67 860.33 336.00 859.00 C 338.33 857.67 339.67 858.33 340.00 860.00 C 340.33 861.67 337.83 867.00 338.00 869.00 C 338.17 871.00 341.50 870.67 341.00 872.00 C 340.50 873.33 336.50 874.17 335.00 877.00 C 333.50 879.83 332.00 885.83 332.00 889.00 C 332.00 892.17 333.17 894.50 335.00 896.00 C 336.83 897.50 341.17 898.67 343.00 898.00 C 344.83 897.33 346.67 892.67 346.00 892.00 C 345.33 891.33 341.17 895.50 339.00 894.00 C 336.83 892.50 332.17 886.83 333.00 883.00 C 333.83 879.17 341.00 873.67 344.00 871.00 C 347.00 868.33 351.33 867.50 351.00 867.00 C 350.67 866.50 343.33 869.67 342.00 868.00 C 340.67 866.33 343.17 859.67 343.00 857.00 C 342.83 854.33 340.67 854.00 341.00 852.00 C 341.33 850.00 346.33 848.33 345.00 845.00 C 343.67 841.67 335.17 833.33 333.00 832.00 Z"/>
  <path d="M 163.00 694.00 C 160.17 695.17 155.17 698.83 153.00 701.00 C 150.83 703.17 148.67 705.00 150.00 707.00 C 151.33 709.00 158.00 711.83 161.00 713.00 C 164.00 714.17 165.67 714.67 168.00 714.00 C 170.33 713.33 173.67 710.83 175.00 709.00 C 176.33 707.17 176.83 705.50 176.00 703.00 C 175.17 700.50 172.17 695.50 170.00 694.00 C 167.83 692.50 165.83 692.83 163.00 694.00 Z"/>
  <path d="M 333.00 796.00 C 331.00 794.00 323.00 793.83 321.00 795.00 C 319.00 796.17 321.67 801.50 321.00 803.00 C 320.33 804.50 318.00 804.17 317.00 804.00 C 316.00 803.83 316.33 801.17 315.00 802.00 C 313.67 802.83 310.67 808.17 309.00 809.00 C 307.33 809.83 306.33 808.83 305.00 807.00 C 303.67 805.17 301.67 798.83 301.00 798.00 C 300.33 797.17 299.67 799.00 301.00 802.00 C 302.33 805.00 307.67 813.00 309.00 816.00 C 310.33 819.00 310.00 818.50 309.00 820.00 C 308.00 821.50 304.00 823.50 303.00 825.00 C 302.00 826.50 301.67 829.33 303.00 829.00 C 304.33 828.67 309.00 826.17 311.00 823.00 C 313.00 819.83 313.67 812.00 315.00 810.00 C 316.33 808.00 315.83 808.33 319.00 811.00 C 322.17 813.67 332.67 825.00 334.00 826.00 C 335.33 827.00 328.33 819.67 327.00 817.00 C 325.67 814.33 327.00 811.67 326.00 810.00 C 325.00 808.33 321.67 808.17 321.00 807.00 C 320.33 805.83 320.83 803.83 322.00 803.00 C 323.17 802.17 326.33 801.67 328.00 802.00 C 329.67 802.33 331.00 803.50 332.00 805.00 C 333.00 806.50 333.00 810.00 334.00 811.00 C 335.00 812.00 338.17 811.67 338.00 811.00 C 337.83 810.33 333.83 809.50 333.00 807.00 C 332.17 804.50 335.00 798.00 333.00 796.00 Z"/>
  <path d="M 417.00 950.00 C 414.83 947.83 409.50 947.00 407.00 947.00 C 404.50 947.00 402.83 948.83 402.00 950.00 C 401.17 951.17 402.50 953.17 402.00 954.00 C 401.50 954.83 399.17 954.17 399.00 955.00 C 398.83 955.83 401.17 957.17 401.00 959.00 C 400.83 960.83 396.50 964.67 398.00 966.00 C 399.50 967.33 406.83 967.33 410.00 967.00 C 413.17 966.67 415.33 965.17 417.00 964.00 C 418.67 962.83 420.00 962.33 420.00 960.00 C 420.00 957.67 419.17 952.17 417.00 950.00 Z"/>
  <path d="M 414.00 1029.00 C 413.00 1026.83 409.33 1024.67 407.00 1024.00 C 404.67 1023.33 402.17 1023.50 400.00 1025.00 C 397.83 1026.50 395.83 1031.50 394.00 1033.00 C 392.17 1034.50 389.67 1033.00 389.00 1034.00 C 388.33 1035.00 388.50 1038.17 390.00 1039.00 C 391.50 1039.83 395.83 1038.17 398.00 1039.00 C 400.17 1039.83 401.33 1043.33 403.00 1044.00 C 404.67 1044.67 406.33 1044.17 408.00 1043.00 C 409.67 1041.83 412.00 1039.33 413.00 1037.00 C 414.00 1034.67 415.00 1031.17 414.00 1029.00 Z"/>
  <path d="M 224.00 609.00 L 226.00 607.00 L 282.00 607.00 L 284.00 611.00 L 226.00 613.00 Z"/>
  <path d="M 225.00 477.00 L 227.00 475.00 L 280.00 475.00 L 282.00 479.00 L 227.00 481.00 Z"/>
  <path d="M 359.00 980.00 C 357.17 977.50 351.00 975.33 349.00 975.00 C 347.00 974.67 348.00 977.50 347.00 978.00 C 346.00 978.50 344.17 977.17 343.00 978.00 C 341.83 978.83 340.33 981.67 340.00 983.00 C 339.67 984.33 342.00 984.83 341.00 986.00 C 340.00 987.17 334.50 988.67 334.00 990.00 C 333.50 991.33 336.00 994.17 338.00 994.00 C 340.00 993.83 342.33 989.67 346.00 989.00 C 349.67 988.33 357.83 991.50 360.00 990.00 C 362.17 988.50 360.83 982.50 359.00 980.00 Z"/>
  <path d="M 223.00 551.00 L 225.00 547.00 L 284.00 548.00 L 283.00 551.00 Z"/>
  <path d="M 284.00 569.00 L 283.00 572.00 L 224.00 572.00 L 226.00 568.00 L 273.00 567.00 Z"/>
  <path d="M 224.00 453.00 L 227.00 449.00 L 282.00 450.00 L 281.00 453.00 Z"/>
  <path d="M 226.00 395.00 L 227.00 392.00 L 237.00 391.00 L 280.00 392.00 L 277.00 396.00 Z"/>
  <path d="M 224.00 504.00 C 223.83 503.17 222.83 501.67 225.00 501.00 C 227.17 500.33 228.50 500.00 237.00 500.00 C 245.50 500.00 269.83 500.17 276.00 501.00 C 282.17 501.83 282.33 504.17 274.00 505.00 C 265.67 505.83 234.33 506.17 226.00 506.00 C 217.67 505.83 224.17 504.83 224.00 504.00 Z"/>
  <path d="M 227.00 329.00 L 277.00 327.00 L 278.00 331.00 L 228.00 332.00 Z"/>
  <path d="M 278.00 361.00 C 280.00 361.83 283.50 363.17 277.00 364.00 C 270.50 364.83 247.67 366.00 239.00 366.00 C 230.33 366.00 227.17 364.83 225.00 364.00 C 222.83 363.17 219.33 361.83 226.00 361.00 C 232.67 360.17 256.33 359.00 265.00 359.00 C 273.67 359.00 276.00 360.17 278.00 361.00 Z"/>
  <path d="M 255.00 618.00 C 255.83 616.83 255.83 614.67 260.00 614.00 C 264.17 613.33 276.50 612.67 280.00 614.00 C 283.50 615.33 284.50 620.33 281.00 622.00 C 277.50 623.67 263.33 624.17 259.00 624.00 C 254.67 623.83 255.67 622.00 255.00 621.00 C 254.33 620.00 254.17 619.17 255.00 618.00 Z"/>
  <path d="M 216.00 648.00 C 217.00 648.00 219.17 645.00 220.00 651.00 C 220.83 657.00 221.17 676.83 221.00 684.00 C 220.83 691.17 219.83 692.50 219.00 694.00 C 218.17 695.50 216.50 697.50 216.00 693.00 C 215.50 688.50 216.33 671.83 216.00 667.00 C 215.67 662.17 214.33 666.67 214.00 664.00 C 213.67 661.33 213.67 653.67 214.00 651.00 C 214.33 648.33 215.00 648.00 216.00 648.00 Z"/>
  <path d="M 226.00 261.00 L 229.00 257.00 L 276.00 258.00 L 275.00 261.00 Z"/>
  <path d="M 227.00 223.00 L 229.00 219.00 L 238.00 218.00 L 274.00 220.00 L 273.00 223.00 Z"/>
</g>
</svg>