<svg xmlns="http://www.w3.org/2000/svg" viewBox="0 0 978 1224">
<title>Mic on stand clean detail</title>
<g fill="#fff" fill-rule="evenodd">
<path d="M 574.0 338.0 L 554.0 402.0 L 496.0 456.0 L 442.0 472.0 L 408.0 465.0 L 414.0 455.0 L 399.0 465.0 L 394.0 457.0 L 342.0 459.0 L 425.0 475.0 L 481.0 468.0 L 484.0 476.0 L 454.0 483.0 L 506.0 475.0 L 509.0 488.0 L 596.0 576.0 L 585.0 582.0 L 556.0 573.0 L 520.0 549.0 L 538.0 589.0 L 577.0 611.0 L 635.0 600.0 L 671.0 569.0 L 685.0 543.0 L 683.0 497.0 L 717.0 555.0 L 716.0 565.0 L 700.0 545.0 L 731.0 649.0 L 724.0 651.0 L 716.0 633.0 L 702.0 634.0 L 713.0 663.0 L 707.0 680.0 L 678.0 682.0 L 651.0 659.0 L 671.0 691.0 L 663.0 698.0 L 669.0 722.0 L 648.0 723.0 L 639.0 735.0 L 624.0 821.0 L 613.0 806.0 L 609.0 759.0 L 605.0 836.0 L 618.0 834.0 L 618.0 823.0 L 632.0 824.0 L 639.0 759.0 L 649.0 794.0 L 648.0 743.0 L 660.0 737.0 L 668.0 750.0 L 679.0 746.0 L 668.0 798.0 L 682.0 811.0 L 679.0 853.0 L 699.0 875.0 L 695.0 929.0 L 686.0 927.0 L 684.0 877.0 L 667.0 838.0 L 672.0 920.0 L 663.0 952.0 L 654.0 955.0 L 654.0 1223.0 L 675.0 1223.0 L 676.0 1000.0 L 668.0 1151.0 L 665.0 954.0 L 674.0 954.0 L 674.0 984.0 L 676.0 953.0 L 705.0 928.0 L 691.0 761.0 L 675.0 727.0 L 693.0 693.0 L 716.0 687.0 L 744.0 635.0 L 725.0 555.0 L 688.0 480.0 L 678.0 480.0 L 667.0 501.0 L 646.0 480.0 Z"/>
<path d="M 604.0 613.0 L 601.0 623.0 L 587.0 620.0 L 598.0 656.0 L 608.0 733.0 L 597.0 737.0 L 588.0 759.0 L 572.0 864.0 L 568.0 922.0 L 582.0 932.0 L 583.0 945.0 L 600.0 952.0 L 599.0 978.0 L 612.0 989.0 L 611.0 995.0 L 602.0 990.0 L 598.0 997.0 L 598.0 1223.0 L 622.0 1223.0 L 620.0 1166.0 L 624.0 1162.0 L 619.0 1142.0 L 624.0 1125.0 L 617.0 1125.0 L 623.0 1101.0 L 621.0 972.0 L 628.0 963.0 L 635.0 971.0 L 632.0 1223.0 L 638.0 1223.0 L 643.0 959.0 L 610.0 954.0 L 613.0 948.0 L 603.0 944.0 L 601.0 938.0 L 614.0 939.0 L 624.0 933.0 L 607.0 933.0 L 591.0 916.0 L 589.0 906.0 L 602.0 757.0 L 610.0 740.0 L 619.0 772.0 L 621.0 744.0 L 626.0 739.0 L 616.0 660.0 L 620.0 643.0 L 610.0 638.0 L 609.0 627.0 L 614.0 619.0 L 627.0 614.0 Z"/>
<path d="M 751.0 636.0 L 747.0 639.0 L 750.0 649.0 L 749.0 662.0 L 737.0 677.0 L 737.0 685.0 L 725.0 693.0 L 705.0 697.0 L 715.0 715.0 L 719.0 732.0 L 732.0 740.0 L 739.0 832.0 L 734.0 952.0 L 706.0 1223.0 L 728.0 1223.0 L 759.0 915.0 L 761.0 809.0 L 755.0 734.0 L 763.0 725.0 L 764.0 711.0 L 751.0 673.0 L 755.0 659.0 Z"/>
<path d="M 569.0 392.0 L 572.0 393.0 L 574.0 400.0 L 580.0 400.0 L 587.0 425.0 L 606.0 447.0 L 629.0 485.0 L 649.0 509.0 L 659.0 510.0 L 664.0 520.0 L 663.0 530.0 L 655.0 545.0 L 638.0 561.0 L 611.0 576.0 L 605.0 573.0 L 594.0 555.0 L 521.0 479.0 L 510.0 473.0 L 515.0 463.0 L 554.0 432.0 L 560.0 421.0 L 549.0 431.0 L 546.0 427.0 L 550.0 417.0 L 563.0 404.0 Z"/>
<path d="M 508.0 150.0 L 507.0 154.0 L 524.0 168.0 L 522.0 173.0 L 526.0 171.0 L 533.0 177.0 L 537.0 190.0 L 527.0 190.0 L 528.0 195.0 L 540.0 192.0 L 545.0 203.0 L 546.0 223.0 L 551.0 229.0 L 547.0 236.0 L 541.0 227.0 L 537.0 231.0 L 554.0 241.0 L 548.0 247.0 L 540.0 241.0 L 538.0 247.0 L 545.0 253.0 L 555.0 252.0 L 546.0 265.0 L 533.0 248.0 L 530.0 248.0 L 533.0 255.0 L 530.0 258.0 L 515.0 242.0 L 508.0 244.0 L 512.0 253.0 L 521.0 250.0 L 519.0 257.0 L 524.0 261.0 L 539.0 256.0 L 542.0 267.0 L 554.0 265.0 L 555.0 269.0 L 548.0 273.0 L 546.0 280.0 L 534.0 266.0 L 530.0 266.0 L 532.0 275.0 L 529.0 276.0 L 512.0 261.0 L 508.0 264.0 L 512.0 269.0 L 509.0 275.0 L 492.0 259.0 L 484.0 263.0 L 490.0 274.0 L 501.0 268.0 L 498.0 279.0 L 502.0 282.0 L 521.0 268.0 L 523.0 281.0 L 539.0 273.0 L 538.0 281.0 L 542.0 285.0 L 553.0 284.0 L 547.0 289.0 L 547.0 295.0 L 530.0 284.0 L 531.0 296.0 L 515.0 282.0 L 508.0 286.0 L 513.0 295.0 L 522.0 289.0 L 522.0 302.0 L 540.0 293.0 L 538.0 301.0 L 544.0 309.0 L 534.0 304.0 L 528.0 306.0 L 531.0 318.0 L 514.0 304.0 L 508.0 308.0 L 511.0 321.0 L 496.0 308.0 L 485.0 314.0 L 490.0 325.0 L 472.0 312.0 L 462.0 320.0 L 471.0 329.0 L 479.0 319.0 L 478.0 334.0 L 482.0 337.0 L 498.0 314.0 L 501.0 315.0 L 498.0 327.0 L 502.0 331.0 L 519.0 311.0 L 522.0 312.0 L 520.0 325.0 L 538.0 315.0 L 539.0 325.0 L 525.0 328.0 L 526.0 336.0 L 517.0 329.0 L 506.0 334.0 L 510.0 346.0 L 496.0 333.0 L 485.0 340.0 L 491.0 351.0 L 474.0 339.0 L 464.0 346.0 L 471.0 357.0 L 460.0 353.0 L 458.0 366.0 L 463.0 370.0 L 477.0 345.0 L 480.0 346.0 L 478.0 360.0 L 482.0 363.0 L 493.0 352.0 L 498.0 339.0 L 502.0 341.0 L 499.0 353.0 L 502.0 355.0 L 513.0 345.0 L 515.0 335.0 L 520.0 335.0 L 520.0 356.0 L 513.0 353.0 L 504.0 358.0 L 507.0 367.0 L 496.0 359.0 L 485.0 365.0 L 491.0 376.0 L 482.0 373.0 L 480.0 384.0 L 486.0 387.0 L 488.0 394.0 L 509.0 375.0 L 534.0 341.0 L 549.0 307.0 L 557.0 272.0 L 557.0 233.0 L 547.0 198.0 L 535.0 176.0 Z"/>
<path d="M 230.0 269.0 L 222.0 283.0 L 215.0 286.0 L 219.0 293.0 L 216.0 305.0 L 222.0 311.0 L 220.0 323.0 L 235.0 363.0 L 242.0 368.0 L 240.0 373.0 L 262.0 407.0 L 278.0 421.0 L 305.0 435.0 L 299.0 426.0 L 302.0 423.0 L 313.0 433.0 L 306.0 425.0 L 305.0 418.0 L 298.0 421.0 L 280.0 418.0 L 280.0 408.0 L 290.0 415.0 L 285.0 410.0 L 287.0 401.0 L 284.0 397.0 L 279.0 404.0 L 274.0 403.0 L 273.0 408.0 L 269.0 409.0 L 261.0 393.0 L 265.0 389.0 L 267.0 395.0 L 276.0 397.0 L 268.0 389.0 L 268.0 384.0 L 285.0 392.0 L 275.0 380.0 L 276.0 377.0 L 296.0 386.0 L 289.0 371.0 L 310.0 380.0 L 311.0 374.0 L 301.0 365.0 L 302.0 362.0 L 327.0 375.0 L 329.0 369.0 L 318.0 356.0 L 330.0 360.0 L 330.0 348.0 L 320.0 344.0 L 314.0 366.0 L 311.0 365.0 L 311.0 355.0 L 303.0 352.0 L 298.0 372.0 L 295.0 371.0 L 294.0 362.0 L 288.0 361.0 L 284.0 377.0 L 275.0 370.0 L 272.0 382.0 L 268.0 377.0 L 264.0 378.0 L 263.0 384.0 L 251.0 381.0 L 249.0 375.0 L 260.0 377.0 L 252.0 364.0 L 268.0 371.0 L 269.0 367.0 L 261.0 358.0 L 264.0 354.0 L 281.0 365.0 L 283.0 358.0 L 274.0 351.0 L 273.0 346.0 L 281.0 350.0 L 283.0 347.0 L 281.0 338.0 L 275.0 335.0 L 270.0 355.0 L 263.0 345.0 L 258.0 360.0 L 254.0 355.0 L 248.0 364.0 L 238.0 359.0 L 239.0 355.0 L 247.0 356.0 L 242.0 344.0 L 254.0 349.0 L 257.0 345.0 L 249.0 335.0 L 250.0 332.0 L 257.0 335.0 L 260.0 331.0 L 261.0 338.0 L 268.0 339.0 L 269.0 333.0 L 262.0 323.0 L 271.0 326.0 L 270.0 312.0 L 265.0 311.0 L 259.0 331.0 L 252.0 322.0 L 247.0 336.0 L 244.0 337.0 L 242.0 333.0 L 237.0 345.0 L 229.0 340.0 L 238.0 332.0 L 232.0 324.0 L 244.0 326.0 L 247.0 321.0 L 241.0 311.0 L 257.0 316.0 L 260.0 309.0 L 252.0 299.0 L 252.0 310.0 L 249.0 311.0 L 247.0 300.0 L 244.0 299.0 L 239.0 315.0 L 234.0 315.0 L 230.0 324.0 L 223.0 322.0 L 230.0 312.0 L 225.0 304.0 L 235.0 305.0 L 239.0 299.0 L 233.0 291.0 L 223.0 305.0 L 219.0 303.0 L 225.0 292.0 L 221.0 284.0 L 231.0 282.0 L 235.0 275.0 Z"/>
<path d="M 562.0 222.0 L 568.0 292.0 L 561.0 324.0 L 554.0 334.0 L 556.0 339.0 L 550.0 343.0 L 553.0 363.0 L 550.0 364.0 L 545.0 359.0 L 546.0 351.0 L 539.0 365.0 L 540.0 373.0 L 534.0 371.0 L 515.0 396.0 L 515.0 403.0 L 508.0 401.0 L 505.0 408.0 L 507.0 418.0 L 503.0 420.0 L 497.0 413.0 L 491.0 415.0 L 486.0 422.0 L 482.0 422.0 L 488.0 423.0 L 495.0 417.0 L 498.0 418.0 L 492.0 434.0 L 485.0 427.0 L 477.0 427.0 L 474.0 434.0 L 466.0 432.0 L 467.0 435.0 L 483.0 432.0 L 484.0 438.0 L 481.0 439.0 L 481.0 443.0 L 488.0 435.0 L 499.0 429.0 L 498.0 423.0 L 507.0 421.0 L 512.0 414.0 L 515.0 417.0 L 519.0 416.0 L 517.0 412.0 L 510.0 412.0 L 509.0 409.0 L 515.0 407.0 L 523.0 395.0 L 526.0 396.0 L 523.0 410.0 L 525.0 403.0 L 529.0 402.0 L 537.0 388.0 L 540.0 389.0 L 541.0 400.0 L 543.0 398.0 L 545.0 385.0 L 540.0 382.0 L 543.0 366.0 L 547.0 366.0 L 547.0 371.0 L 553.0 377.0 L 552.0 368.0 L 555.0 361.0 L 561.0 357.0 L 556.0 348.0 L 558.0 339.0 L 561.0 338.0 L 563.0 343.0 L 567.0 344.0 L 566.0 328.0 L 571.0 325.0 L 572.0 317.0 L 568.0 312.0 L 573.0 310.0 L 571.0 299.0 L 574.0 289.0 Z"/>
</g></svg>
