<?xml version="1.0" standalone="no"?>
<!DOCTYPE svg PUBLIC "-//W3C//DTD SVG 20010904//EN"
 "http://www.w3.org/TR/2001/REC-SVG-20010904/DTD/svg10.dtd">
<svg version="1.0" xmlns="http://www.w3.org/2000/svg"
 width="500.000000pt" height="430.000000pt" viewBox="400 180 700.000000 700.000000"
 preserveAspectRatio="xY meet">

<g transform="translate(0.000000,1024.000000) scale(0.100000,-0.100000)"
fill="#000000" stroke="none">
<path d="M7496 8039 c-215 -16 -494 -70 -698 -134 -326 -103 -679 -293 -962
-518 -137 -110 -395 -370 -484 -488 -265 -355 -435 -748 -507 -1173 -78 -463
-44 -912 104 -1339 199 -578 570 -1044 1117 -1403 373 -245 839 -412 1289
-464 164 -19 502 -22 655 -5 662 72 1283 355 1743 795 238 228 399 444 541
727 154 307 232 576 272 930 18 161 15 478 -6 623 -91 625 -356 1158 -795
1596 -378 377 -862 647 -1400 783 -242 61 -606 90 -869 70z m502 -139 c600
-63 1179 -336 1621 -765 223 -217 379 -425 515 -687 165 -317 243 -575 287
-951 17 -146 6 -491 -20 -642 -101 -571 -361 -1064 -769 -1457 -486 -467
-1117 -730 -1839 -764 -300 -15 -678 40 -998 145 -589 192 -1127 610 -1447
1124 -291 466 -430 1013 -390 1536 27 359 114 668 278 992 132 261 269 447
493 669 233 232 434 377 712 517 305 152 605 239 994 286 69 9 473 6 563 -3z"/>
<path d="M7455 7753 c-169 -14 -446 -76 -629 -140 -751 -261 -1354 -886 -1576
-1633 -107 -362 -121 -789 -40 -1191 124 -610 530 -1198 1081 -1564 306 -203
603 -321 976 -386 153 -27 497 -37 668 -20 491 49 979 246 1355 547 111 90
318 297 404 404 473 596 643 1357 467 2085 -78 321 -254 676 -470 948 -296
373 -724 669 -1202 833 -132 45 -346 94 -476 109 -116 14 -441 18 -558 8z
m1026 -364 c377 -194 518 -269 524 -279 7 -11 -37 -34 -255 -133 -91 -41 -343
-157 -560 -257 -217 -100 -516 -236 -664 -303 -148 -67 -271 -128 -273 -135
-7 -17 16 -33 106 -72 76 -33 366 -163 646 -290 83 -38 312 -140 510 -228 539
-240 492 -216 500 -254 4 -18 17 -58 30 -88 38 -93 78 -643 79 -1085 1 -263 0
-282 -19 -314 -21 -37 -8 -30 -900 -441 -170 -78 -431 -199 -580 -268 -331
-154 -327 -153 -476 -89 -57 25 -219 93 -359 150 -234 97 -433 181 -552 236
-27 12 -48 26 -48 32 0 11 35 28 600 289 212 98 581 269 820 380 239 111 511
236 603 277 146 66 168 79 165 97 -4 28 -433 246 -759 386 -181 77 -248 112
-290 146 -30 25 -74 57 -99 71 -25 15 -47 28 -49 29 -2 2 21 35 50 74 l52 71
16 -24 c27 -40 65 -81 91 -100 31 -22 105 -22 505 -2 165 9 394 20 509 25 114
5 210 10 212 12 2 2 -205 12 -459 22 -254 10 -515 21 -579 25 -134 9 -133 8
-216 117 -81 107 -107 106 -173 -9 -61 -105 -131 -197 -150 -197 -4 0 -24 69
-44 153 -53 218 -143 544 -159 575 -36 69 -86 78 -111 19 -15 -37 -80 -313
-125 -537 -18 -85 -33 -156 -35 -158 -2 -2 -40 40 -85 93 -45 53 -85 94 -88
91 -2 -3 9 -45 26 -93 64 -181 100 -335 72 -307 -6 6 -39 70 -75 142 -35 73
-68 132 -73 132 -4 0 -30 -25 -57 -56 l-48 -56 -111 6 c-299 19 -870 66 -864
71 5 5 829 75 886 75 29 0 39 9 106 100 l74 100 21 -33 c12 -19 21 -40 21 -47
0 -7 3 -10 7 -6 4 3 6 260 4 570 -3 630 -5 608 67 645 48 25 330 148 1002 441
272 118 322 140 565 248 99 43 187 82 195 85 8 3 15 6 16 6 1 1 115 -58 255
-130z m-1566 -2162 c53 -234 53 -234 9 -472 -41 -219 -57 -265 -94 -265 -30 0
-47 33 -79 151 -17 64 -38 143 -46 175 -9 33 -24 97 -34 142 l-19 84 39 231
c31 184 61 358 89 517 2 8 83 -330 135 -563z m2752 153 c243 -22 447 -40 454
-40 97 0 -394 -45 -711 -65 -47 -3 -108 -8 -137 -11 l-51 -5 -46 81 c-25 45
-46 83 -46 85 0 3 7 2 537 -45z"/>
</g>
</svg>

